<mxfile host="app.diagrams.net" modified="2023-07-13T13:45:03.836Z" agent="Mozilla/5.0 (Macintosh; Intel Mac OS X 10_15_7) AppleWebKit/537.36 (KHTML, like Gecko) Chrome/114.0.0.0 Safari/537.36" etag="RlUBFMUaITk-dSho_GR2" version="21.2.7">
  <diagram name="Page-1" id="0jWerqGWuW1YUwILrupl">
    <mxGraphModel dx="1562" dy="949" grid="1" gridSize="10" guides="1" tooltips="1" connect="1" arrows="1" fold="1" page="1" pageScale="1" pageWidth="827" pageHeight="1169" math="0" shadow="0">
      <root>
        <mxCell id="0" />
        <mxCell id="1" parent="0" />
        <mxCell id="Cw4v4y6tv-VzNez0efr1-2" value="" style="rounded=0;whiteSpace=wrap;html=1;fillColor=default;" vertex="1" parent="1">
          <mxGeometry x="140" y="74" width="1250" height="676" as="geometry" />
        </mxCell>
        <mxCell id="Cw4v4y6tv-VzNez0efr1-117" style="edgeStyle=orthogonalEdgeStyle;rounded=0;orthogonalLoop=1;jettySize=auto;html=1;exitX=1;exitY=0.5;exitDx=0;exitDy=0;entryX=0;entryY=0.5;entryDx=0;entryDy=0;" edge="1" parent="1" source="Cw4v4y6tv-VzNez0efr1-113" target="Cw4v4y6tv-VzNez0efr1-135">
          <mxGeometry relative="1" as="geometry">
            <mxPoint x="212" y="347" as="targetPoint" />
          </mxGeometry>
        </mxCell>
        <mxCell id="Cw4v4y6tv-VzNez0efr1-13" value="" style="rounded=0;whiteSpace=wrap;html=1;fillColor=none;" vertex="1" parent="1">
          <mxGeometry x="180" y="134" width="960" height="586" as="geometry" />
        </mxCell>
        <mxCell id="Cw4v4y6tv-VzNez0efr1-4" value="" style="image;sketch=0;aspect=fixed;html=1;points=[];align=center;fontSize=12;image=img/lib/mscae/SAP_HANA_on_Azure.svg;" vertex="1" parent="1">
          <mxGeometry x="150" y="85" width="50" height="25" as="geometry" />
        </mxCell>
        <mxCell id="Cw4v4y6tv-VzNez0efr1-5" value="HANA Cloud&#xa;(incl. VSS)" style="shape=image;verticalLabelPosition=bottom;verticalAlign=top;imageAspect=0;aspect=fixed;image=data:image/svg+xml,PHN2ZyBpZD0iaGFuYSIgeG1sbnM9Imh0dHA6Ly93d3cudzMub3JnLzIwMDAvc3ZnIiB2aWV3Qm94PSIwIDAgNTYgNTYiPjxkZWZzPjxzdHlsZT4uY2xzLTF7ZmlsbDojMGE2ZWQxO30uY2xzLTJ7ZmlsbDojMDUzYjcwO308L3N0eWxlPjwvZGVmcz48dGl0bGU+aGFuYTwvdGl0bGU+PHBhdGggY2xhc3M9ImNscy0xIiBkPSJNNTEsMjIuMzMyYTcuMjM2LDcuMjM2LDAsMCwwLTIuNjEzLTEuODJBMjIuNDA4LDIyLjQwOCwwLDAsMCwzOS41NjksMTlhMjIuNCwyMi40LDAsMCwwLTguODE3LDEuNTEyLDcuMjM2LDcuMjM2LDAsMCwwLTIuNjEzLDEuODIsMy43NzIsMy43NzIsMCwwLDAtMSwyLjUyMVY0Ni4wODFhMy42MzIsMy42MzIsMCwwLDAsMSwyLjUxNCw3LjEwNyw3LjEwNywwLDAsMCwyLjYwNywxLjgyMUEyMS4xNTQsMjEuMTU0LDAsMCwwLDM5LjU2OSw1MmEyMi40MDgsMjIuNDA4LDAsMCwwLDguODE4LTEuNTEyQTcuMjM2LDcuMjM2LDAsMCwwLDUxLDQ4LjY2OGEzLjkyNywzLjkyNywwLDAsMCwxLTIuNTIxVjI0Ljg1M0EzLjc3MiwzLjc3MiwwLDAsMCw1MSwyMi4zMzJaTTQyLjM2NSw0OS4xNzRjLS44OTMuMDg1LTEuODE4LjE0NC0yLjguMTQ0YTI4LjUzOCwyOC41MzgsMCwwLDEtMy40MDYtLjIxMVYzMC41NzJhMzMuMjYsMzMuMjYsMCwwLDAsMy40MDYuMTY1Yy45NzksMCwxLjktLjA1LDIuOC0uMTI2Wm03LjE2Ny0zLjAyN2MwLC43LS45MTYsMS40Ni0yLjQ1NCwyLjAzNWExNC4yOCwxNC4yOCwwLDAsMS0yLjIyOS42MjJWMzAuMjY3YTEzLjYyOCwxMy42MjgsMCwwLDAsNC42ODMtMS42NDNaTTQ3LjA3OCwyNi45ODVhMjEuNTcsMjEuNTcsMCwwLDEtNy41MDksMS4xMzYsMjEuNTA4LDIxLjUwOCwwLDAsMS03LjUtMS4xMzZjLTEuNTI0LS42NS0yLjQtMS40MTYtMi40LTIuMXYtLjAzMWMwLTEuMywzLjUyNi0zLjE3MSw5LjktMy4xNzEsNi40MTcsMCw5Ljk2MywxLjg3Niw5Ljk2MywzLjIwNUM0OS41MzIsMjUuNTc4LDQ4LjYzNiwyNi4zNDQsNDcuMDc4LDI2Ljk4NVoiLz48cGF0aCBjbGFzcz0iY2xzLTIiIGQ9Ik0yNC4zLDI3Ljk4NkgxMi40MWE1LjM4Nyw1LjM4NywwLDAsMS0xLjY3NS0xMC41MTVsMi4zMDgtLjc1OUwxMi43ODEsMTQuM2E4LjEsOC4xLDAsMCwxLDEuNS01LjI4NEE2LjUsNi41LDAsMCwxLDE5LjEwOSw3YTYuMDU0LDYuMDU0LDAsMCwxLDUuODY0LDQuMDMzbDEuMzA3LDMuMjlMMjkuMzEsMTIuNWEzLjkyMiwzLjkyMiwwLDAsMSwyLjA0My0uNTkxLDMuOTg4LDMuOTg4LDAsMCwxLDMuOTE0LDMuMjQ5bC4xNTkuODQ1aDNjLS4wNDctLjQzOS0uMTA4LS45LS4yMS0xLjRBNi45NDEsNi45NDEsMCwwLDAsMjcuNzYyLDkuOTI4LDkuNDUyLDkuNDUyLDAsMCwwLDE5LjA1NSw0QzguODYzLDQuMjQyLDkuOCwxNC42MjEsOS44LDE0LjYyMUE4LjM4Nyw4LjM4NywwLDAsMCwxMi40MSwzMC45ODZIMjQuM1oiLz48L3N2Zz4=" vertex="1" parent="1">
          <mxGeometry x="480" y="602.4100000000001" width="56" height="56" as="geometry" />
        </mxCell>
        <mxCell id="Cw4v4y6tv-VzNez0efr1-8" value="SAP AI Launchpad" style="shape=image;verticalLabelPosition=bottom;verticalAlign=top;imageAspect=0;aspect=fixed;image=https://digitalmarketplace-sapcpprd.s3.eu-central-1.amazonaws.com/_wxRL2KOuUP4jgPRVdhGO7Fv1M049zmP6qeG7is5bNtgy6al66xuA51n9MpYF0l2.svg;container=1;movable=0;resizable=0;rotatable=0;deletable=0;editable=0;locked=1;connectable=0;" vertex="1" parent="1">
          <mxGeometry x="810" y="603.0000000000001" width="56" height="56" as="geometry">
            <mxRectangle x="810" y="603.0000000000001" width="140" height="30" as="alternateBounds" />
          </mxGeometry>
        </mxCell>
        <mxCell id="Cw4v4y6tv-VzNez0efr1-12" value="" style="group" vertex="1" connectable="0" parent="1">
          <mxGeometry x="920" y="450" width="230" height="212" as="geometry" />
        </mxCell>
        <mxCell id="Cw4v4y6tv-VzNez0efr1-9" value="" style="rounded=0;whiteSpace=wrap;html=1;fillColor=none;" vertex="1" parent="Cw4v4y6tv-VzNez0efr1-12">
          <mxGeometry x="-3" y="25" width="183" height="180" as="geometry" />
        </mxCell>
        <mxCell id="Cw4v4y6tv-VzNez0efr1-7" value="" style="shape=image;verticalLabelPosition=bottom;verticalAlign=top;imageAspect=0;aspect=fixed;image=https://digitalmarketplace-sapcpprd.s3.eu-central-1.amazonaws.com/tbvFIvhMmXYD8hjF8P0q2xW5YrDJFbcX8CYCsCQn8AI-DbJ4DTOiWw5TM3D6NitW.svg" vertex="1" parent="Cw4v4y6tv-VzNez0efr1-12">
          <mxGeometry x="2" y="29.99666666666667" width="40" height="40" as="geometry" />
        </mxCell>
        <mxCell id="Cw4v4y6tv-VzNez0efr1-36" value="SAP hosted LLMs" style="rounded=0;whiteSpace=wrap;html=1;fillColor=none;" vertex="1" parent="Cw4v4y6tv-VzNez0efr1-12">
          <mxGeometry x="16.5" y="161" width="138.5" height="33.34" as="geometry" />
        </mxCell>
        <mxCell id="Cw4v4y6tv-VzNez0efr1-142" value="AI Core API" style="rounded=0;whiteSpace=wrap;html=1;fillColor=none;" vertex="1" parent="Cw4v4y6tv-VzNez0efr1-12">
          <mxGeometry x="16.5" y="74" width="138.5" height="33.34" as="geometry" />
        </mxCell>
        <mxCell id="Cw4v4y6tv-VzNez0efr1-150" style="edgeStyle=orthogonalEdgeStyle;rounded=0;orthogonalLoop=1;jettySize=auto;html=1;exitX=1;exitY=0.5;exitDx=0;exitDy=0;entryX=1;entryY=0.5;entryDx=0;entryDy=0;" edge="1" parent="Cw4v4y6tv-VzNez0efr1-12" source="Cw4v4y6tv-VzNez0efr1-11" target="Cw4v4y6tv-VzNez0efr1-36">
          <mxGeometry relative="1" as="geometry">
            <Array as="points">
              <mxPoint x="170" y="135" />
              <mxPoint x="170" y="178" />
            </Array>
          </mxGeometry>
        </mxCell>
        <mxCell id="Cw4v4y6tv-VzNez0efr1-11" value="SAP LLM Proxy Service" style="rounded=0;whiteSpace=wrap;html=1;fillColor=none;" vertex="1" parent="Cw4v4y6tv-VzNez0efr1-12">
          <mxGeometry x="16.5" y="114.33000000000004" width="138.5" height="40.34" as="geometry" />
        </mxCell>
        <mxCell id="Cw4v4y6tv-VzNez0efr1-174" value="&lt;span style=&quot;color: rgb(0, 0, 0); font-family: Helvetica; font-size: 12px; font-style: normal; font-variant-ligatures: normal; font-variant-caps: normal; letter-spacing: normal; orphans: 2; text-align: center; text-indent: 0px; text-transform: none; widows: 2; word-spacing: 0px; -webkit-text-stroke-width: 0px; background-color: rgb(251, 251, 251); text-decoration-thickness: initial; text-decoration-style: initial; text-decoration-color: initial; float: none; display: inline !important;&quot;&gt;&lt;b&gt;SAP AI Core&lt;/b&gt;&lt;/span&gt;" style="text;whiteSpace=wrap;html=1;" vertex="1" parent="Cw4v4y6tv-VzNez0efr1-12">
          <mxGeometry x="50" y="40" width="100" height="20" as="geometry" />
        </mxCell>
        <mxCell id="Cw4v4y6tv-VzNez0efr1-123" style="edgeStyle=orthogonalEdgeStyle;rounded=0;orthogonalLoop=1;jettySize=auto;html=1;exitX=0;exitY=0.25;exitDx=0;exitDy=0;entryX=0.5;entryY=0;entryDx=0;entryDy=0;" edge="1" parent="1" source="Cw4v4y6tv-VzNez0efr1-163" target="Cw4v4y6tv-VzNez0efr1-182">
          <mxGeometry relative="1" as="geometry">
            <mxPoint x="566" y="365" as="sourcePoint" />
            <mxPoint x="515" y="471.5799999999999" as="targetPoint" />
          </mxGeometry>
        </mxCell>
        <mxCell id="Cw4v4y6tv-VzNez0efr1-147" style="edgeStyle=orthogonalEdgeStyle;rounded=0;orthogonalLoop=1;jettySize=auto;html=1;exitX=1;exitY=0.75;exitDx=0;exitDy=0;entryX=0;entryY=0.5;entryDx=0;entryDy=0;" edge="1" parent="1" source="Cw4v4y6tv-VzNez0efr1-163" target="Cw4v4y6tv-VzNez0efr1-24">
          <mxGeometry relative="1" as="geometry">
            <mxPoint x="750" y="415" as="sourcePoint" />
          </mxGeometry>
        </mxCell>
        <mxCell id="Cw4v4y6tv-VzNez0efr1-21" style="edgeStyle=orthogonalEdgeStyle;rounded=0;orthogonalLoop=1;jettySize=auto;html=1;exitX=0.002;exitY=0.865;exitDx=0;exitDy=0;exitPerimeter=0;" edge="1" parent="1" source="Cw4v4y6tv-VzNez0efr1-9" target="Cw4v4y6tv-VzNez0efr1-8">
          <mxGeometry relative="1" as="geometry" />
        </mxCell>
        <mxCell id="Cw4v4y6tv-VzNez0efr1-26" style="edgeStyle=orthogonalEdgeStyle;rounded=0;orthogonalLoop=1;jettySize=auto;html=1;exitX=0.5;exitY=1;exitDx=0;exitDy=0;entryX=0;entryY=0.5;entryDx=0;entryDy=0;dashed=1;" edge="1" parent="1" source="Cw4v4y6tv-VzNez0efr1-24" target="Cw4v4y6tv-VzNez0efr1-142">
          <mxGeometry relative="1" as="geometry">
            <Array as="points">
              <mxPoint x="810" y="541" />
            </Array>
          </mxGeometry>
        </mxCell>
        <mxCell id="Cw4v4y6tv-VzNez0efr1-148" value="register" style="edgeLabel;html=1;align=center;verticalAlign=middle;resizable=0;points=[];" vertex="1" connectable="0" parent="Cw4v4y6tv-VzNez0efr1-26">
          <mxGeometry x="0.5018" y="1" relative="1" as="geometry">
            <mxPoint x="-8" as="offset" />
          </mxGeometry>
        </mxCell>
        <mxCell id="Cw4v4y6tv-VzNez0efr1-146" style="edgeStyle=orthogonalEdgeStyle;rounded=0;orthogonalLoop=1;jettySize=auto;html=1;exitX=0.5;exitY=1;exitDx=0;exitDy=0;entryX=0;entryY=0.5;entryDx=0;entryDy=0;" edge="1" parent="1" source="Cw4v4y6tv-VzNez0efr1-24" target="Cw4v4y6tv-VzNez0efr1-11">
          <mxGeometry relative="1" as="geometry">
            <Array as="points">
              <mxPoint x="810" y="585" />
            </Array>
          </mxGeometry>
        </mxCell>
        <mxCell id="Cw4v4y6tv-VzNez0efr1-24" value="Destination&#xa;Service" style="shape=image;verticalLabelPosition=bottom;verticalAlign=top;imageAspect=0;aspect=fixed;image=https://digitalmarketplace-sapcpprd.s3.eu-central-1.amazonaws.com/o7VuYO5M1EhOj0zG1CC9najqsh9pmt5ZJDNYXv3XETZgs9nPStrzzZOQvpx4DLVg.svg;labelBackgroundColor=default;" vertex="1" parent="1">
          <mxGeometry x="793" y="389" width="34" height="34" as="geometry" />
        </mxCell>
        <mxCell id="Cw4v4y6tv-VzNez0efr1-29" value="Business Technology Platform" style="text;html=1;align=center;verticalAlign=middle;resizable=0;points=[];autosize=1;strokeColor=none;fillColor=none;fontStyle=1;fontSize=14;" vertex="1" parent="1">
          <mxGeometry x="190" y="85" width="230" height="30" as="geometry" />
        </mxCell>
        <mxCell id="Cw4v4y6tv-VzNez0efr1-37" value="Azure OpenAI Services" style="rounded=0;whiteSpace=wrap;html=1;fillColor=none;" vertex="1" parent="1">
          <mxGeometry x="1420" y="504.16999999999996" width="100" height="41.66" as="geometry" />
        </mxCell>
        <mxCell id="Cw4v4y6tv-VzNez0efr1-38" value="Vertex" style="rounded=0;whiteSpace=wrap;html=1;fillColor=none;" vertex="1" parent="1">
          <mxGeometry x="1420" y="563.83" width="100" height="40" as="geometry" />
        </mxCell>
        <mxCell id="Cw4v4y6tv-VzNez0efr1-39" value="..." style="rounded=0;whiteSpace=wrap;html=1;fillColor=none;" vertex="1" parent="1">
          <mxGeometry x="1420" y="625.83" width="100" height="40" as="geometry" />
        </mxCell>
        <mxCell id="Cw4v4y6tv-VzNez0efr1-55" style="edgeStyle=orthogonalEdgeStyle;rounded=0;orthogonalLoop=1;jettySize=auto;html=1;exitX=0.5;exitY=0;exitDx=0;exitDy=0;entryX=0.5;entryY=1;entryDx=0;entryDy=0;" edge="1" parent="1" source="Cw4v4y6tv-VzNez0efr1-135" target="Cw4v4y6tv-VzNez0efr1-134">
          <mxGeometry relative="1" as="geometry">
            <mxPoint x="247" y="327" as="sourcePoint" />
            <mxPoint x="247" y="270" as="targetPoint" />
          </mxGeometry>
        </mxCell>
        <mxCell id="Cw4v4y6tv-VzNez0efr1-100" style="edgeStyle=orthogonalEdgeStyle;rounded=0;orthogonalLoop=1;jettySize=auto;html=1;exitX=1;exitY=0.5;exitDx=0;exitDy=0;entryX=-0.176;entryY=0.51;entryDx=0;entryDy=0;entryPerimeter=0;" edge="1" parent="1" source="Cw4v4y6tv-VzNez0efr1-135" target="Cw4v4y6tv-VzNez0efr1-51">
          <mxGeometry relative="1" as="geometry">
            <mxPoint x="282" y="347" as="sourcePoint" />
          </mxGeometry>
        </mxCell>
        <mxCell id="Cw4v4y6tv-VzNez0efr1-57" style="edgeStyle=orthogonalEdgeStyle;rounded=0;orthogonalLoop=1;jettySize=auto;html=1;exitX=1;exitY=0.5;exitDx=0;exitDy=0;entryX=0;entryY=0.5;entryDx=0;entryDy=0;" edge="1" parent="1" source="Cw4v4y6tv-VzNez0efr1-51" target="Cw4v4y6tv-VzNez0efr1-163">
          <mxGeometry relative="1" as="geometry">
            <mxPoint x="566" y="390" as="targetPoint" />
            <Array as="points">
              <mxPoint x="490" y="347" />
              <mxPoint x="490" y="382" />
              <mxPoint x="566" y="382" />
            </Array>
          </mxGeometry>
        </mxCell>
        <mxCell id="Cw4v4y6tv-VzNez0efr1-51" value="Destination&#xa;Service" style="shape=image;verticalLabelPosition=bottom;verticalAlign=top;imageAspect=0;aspect=fixed;image=https://digitalmarketplace-sapcpprd.s3.eu-central-1.amazonaws.com/o7VuYO5M1EhOj0zG1CC9najqsh9pmt5ZJDNYXv3XETZgs9nPStrzzZOQvpx4DLVg.svg" vertex="1" parent="1">
          <mxGeometry x="340" y="329.66" width="34" height="34" as="geometry" />
        </mxCell>
        <mxCell id="Cw4v4y6tv-VzNez0efr1-54" style="edgeStyle=orthogonalEdgeStyle;rounded=0;orthogonalLoop=1;jettySize=auto;html=1;exitX=0;exitY=0.5;exitDx=0;exitDy=0;entryX=1;entryY=0.5;entryDx=0;entryDy=0;" edge="1" parent="1" source="Cw4v4y6tv-VzNez0efr1-153" target="Cw4v4y6tv-VzNez0efr1-134">
          <mxGeometry relative="1" as="geometry">
            <mxPoint x="336" y="250" as="sourcePoint" />
            <mxPoint x="282" y="250" as="targetPoint" />
          </mxGeometry>
        </mxCell>
        <mxCell id="Cw4v4y6tv-VzNez0efr1-58" value="&lt;b&gt;Provider Subaccount&lt;br&gt;&lt;/b&gt;" style="text;html=1;align=center;verticalAlign=middle;resizable=0;points=[];autosize=1;strokeColor=none;fillColor=none;" vertex="1" parent="1">
          <mxGeometry x="180" y="134" width="140" height="30" as="geometry" />
        </mxCell>
        <mxCell id="Cw4v4y6tv-VzNez0efr1-99" style="edgeStyle=orthogonalEdgeStyle;rounded=0;orthogonalLoop=1;jettySize=auto;html=1;exitX=0.5;exitY=1;exitDx=0;exitDy=0;" edge="1" parent="1" source="Cw4v4y6tv-VzNez0efr1-182" target="Cw4v4y6tv-VzNez0efr1-5">
          <mxGeometry relative="1" as="geometry">
            <mxPoint x="515" y="511.5799999999999" as="sourcePoint" />
          </mxGeometry>
        </mxCell>
        <mxCell id="Cw4v4y6tv-VzNez0efr1-64" style="edgeStyle=orthogonalEdgeStyle;rounded=0;orthogonalLoop=1;jettySize=auto;html=1;exitX=0;exitY=0.5;exitDx=0;exitDy=0;entryX=0.998;entryY=0.345;entryDx=0;entryDy=0;entryPerimeter=0;" edge="1" parent="1" source="Cw4v4y6tv-VzNez0efr1-126" target="Cw4v4y6tv-VzNez0efr1-163">
          <mxGeometry relative="1" as="geometry">
            <mxPoint x="750" y="365" as="targetPoint" />
          </mxGeometry>
        </mxCell>
        <mxCell id="Cw4v4y6tv-VzNez0efr1-94" style="edgeStyle=orthogonalEdgeStyle;rounded=0;orthogonalLoop=1;jettySize=auto;html=1;exitX=0;exitY=0.5;exitDx=0;exitDy=0;entryX=1;entryY=0.75;entryDx=0;entryDy=0;dashed=1;endArrow=none;endFill=0;" edge="1" parent="1" source="Cw4v4y6tv-VzNez0efr1-65" target="Cw4v4y6tv-VzNez0efr1-132">
          <mxGeometry relative="1" as="geometry">
            <mxPoint x="869" y="280" as="targetPoint" />
          </mxGeometry>
        </mxCell>
        <mxCell id="Cw4v4y6tv-VzNez0efr1-172" style="edgeStyle=orthogonalEdgeStyle;rounded=0;orthogonalLoop=1;jettySize=auto;html=1;exitX=0;exitY=0.75;exitDx=0;exitDy=0;entryX=1;entryY=0.5;entryDx=0;entryDy=0;dashed=1;" edge="1" parent="1" source="Cw4v4y6tv-VzNez0efr1-66" target="Cw4v4y6tv-VzNez0efr1-65">
          <mxGeometry relative="1" as="geometry">
            <Array as="points">
              <mxPoint x="1110" y="254" />
              <mxPoint x="1110" y="298" />
            </Array>
          </mxGeometry>
        </mxCell>
        <mxCell id="Cw4v4y6tv-VzNez0efr1-66" value="" style="rounded=0;whiteSpace=wrap;html=1;fillColor=none;" vertex="1" parent="1">
          <mxGeometry x="1200" y="134" width="160" height="160" as="geometry" />
        </mxCell>
        <mxCell id="Cw4v4y6tv-VzNez0efr1-70" style="edgeStyle=orthogonalEdgeStyle;rounded=0;orthogonalLoop=1;jettySize=auto;html=1;exitX=0;exitY=0.5;exitDx=0;exitDy=0;entryX=1;entryY=0.5;entryDx=0;entryDy=0;" edge="1" parent="1" source="Cw4v4y6tv-VzNez0efr1-84" target="Cw4v4y6tv-VzNez0efr1-126">
          <mxGeometry relative="1" as="geometry">
            <mxPoint x="960" y="365" as="targetPoint" />
            <Array as="points">
              <mxPoint x="1080" y="420" />
              <mxPoint x="1080" y="366" />
            </Array>
          </mxGeometry>
        </mxCell>
        <mxCell id="Cw4v4y6tv-VzNez0efr1-173" style="edgeStyle=orthogonalEdgeStyle;rounded=0;orthogonalLoop=1;jettySize=auto;html=1;exitX=0;exitY=0.25;exitDx=0;exitDy=0;entryX=1;entryY=0.5;entryDx=0;entryDy=0;dashed=1;" edge="1" parent="1" source="Cw4v4y6tv-VzNez0efr1-67" target="Cw4v4y6tv-VzNez0efr1-65">
          <mxGeometry relative="1" as="geometry">
            <mxPoint x="980" y="280" as="targetPoint" />
            <Array as="points">
              <mxPoint x="1110" y="360" />
              <mxPoint x="1110" y="298" />
            </Array>
          </mxGeometry>
        </mxCell>
        <mxCell id="Cw4v4y6tv-VzNez0efr1-184" value="register" style="edgeLabel;html=1;align=center;verticalAlign=middle;resizable=0;points=[];" vertex="1" connectable="0" parent="Cw4v4y6tv-VzNez0efr1-173">
          <mxGeometry x="0.7213" y="-3" relative="1" as="geometry">
            <mxPoint x="7" y="2" as="offset" />
          </mxGeometry>
        </mxCell>
        <mxCell id="Cw4v4y6tv-VzNez0efr1-67" value="" style="rounded=0;whiteSpace=wrap;html=1;fillColor=none;" vertex="1" parent="1">
          <mxGeometry x="1200" y="320" width="160" height="160" as="geometry" />
        </mxCell>
        <mxCell id="Cw4v4y6tv-VzNez0efr1-68" value="&lt;b&gt;Subscriber 1 Subaccount&lt;/b&gt;" style="text;html=1;align=center;verticalAlign=middle;resizable=0;points=[];autosize=1;strokeColor=none;fillColor=none;" vertex="1" parent="1">
          <mxGeometry x="1195" y="134" width="170" height="30" as="geometry" />
        </mxCell>
        <mxCell id="Cw4v4y6tv-VzNez0efr1-69" value="&lt;b&gt;Subscriber&amp;nbsp;&lt;i&gt;n&lt;/i&gt; Subaccount&lt;/b&gt;" style="text;html=1;align=center;verticalAlign=middle;resizable=0;points=[];autosize=1;strokeColor=none;fillColor=none;" vertex="1" parent="1">
          <mxGeometry x="1194" y="320" width="170" height="30" as="geometry" />
        </mxCell>
        <mxCell id="Cw4v4y6tv-VzNez0efr1-125" style="edgeStyle=orthogonalEdgeStyle;rounded=0;orthogonalLoop=1;jettySize=auto;html=1;exitX=0;exitY=0.75;exitDx=0;exitDy=0;entryX=1;entryY=0.5;entryDx=0;entryDy=0;endArrow=none;endFill=0;dashed=1;" edge="1" parent="1" source="Cw4v4y6tv-VzNez0efr1-132" target="Cw4v4y6tv-VzNez0efr1-164">
          <mxGeometry relative="1" as="geometry">
            <mxPoint x="799" y="280" as="sourcePoint" />
            <mxPoint x="750" y="280" as="targetPoint" />
          </mxGeometry>
        </mxCell>
        <mxCell id="Cw4v4y6tv-VzNez0efr1-78" style="edgeStyle=orthogonalEdgeStyle;rounded=0;orthogonalLoop=1;jettySize=auto;html=1;exitX=0.5;exitY=0;exitDx=0;exitDy=0;entryX=0.5;entryY=1;entryDx=0;entryDy=0;" edge="1" parent="1" source="Cw4v4y6tv-VzNez0efr1-127" target="Cw4v4y6tv-VzNez0efr1-162">
          <mxGeometry relative="1" as="geometry">
            <mxPoint x="670" y="440" as="targetPoint" />
          </mxGeometry>
        </mxCell>
        <mxCell id="Cw4v4y6tv-VzNez0efr1-102" style="edgeStyle=orthogonalEdgeStyle;rounded=0;orthogonalLoop=1;jettySize=auto;html=1;exitX=0.5;exitY=0;exitDx=0;exitDy=0;entryX=0.75;entryY=1;entryDx=0;entryDy=0;dashed=1;endArrow=none;endFill=0;" edge="1" parent="1" source="Cw4v4y6tv-VzNez0efr1-129">
          <mxGeometry relative="1" as="geometry">
            <mxPoint x="734.9999999999998" y="440" as="targetPoint" />
          </mxGeometry>
        </mxCell>
        <mxCell id="Cw4v4y6tv-VzNez0efr1-137" style="edgeStyle=orthogonalEdgeStyle;rounded=0;orthogonalLoop=1;jettySize=auto;html=1;exitX=0;exitY=0.5;exitDx=0;exitDy=0;entryX=1;entryY=0.5;entryDx=0;entryDy=0;" edge="1" parent="1" source="Cw4v4y6tv-VzNez0efr1-83" target="Cw4v4y6tv-VzNez0efr1-126">
          <mxGeometry relative="1" as="geometry">
            <Array as="points">
              <mxPoint x="1080" y="220" />
              <mxPoint x="1080" y="366" />
            </Array>
          </mxGeometry>
        </mxCell>
        <mxCell id="Cw4v4y6tv-VzNez0efr1-83" value="API Broker" style="rounded=0;whiteSpace=wrap;html=1;" vertex="1" parent="1">
          <mxGeometry x="1238" y="200" width="70" height="40" as="geometry" />
        </mxCell>
        <mxCell id="Cw4v4y6tv-VzNez0efr1-84" value="API Broker" style="rounded=0;whiteSpace=wrap;html=1;" vertex="1" parent="1">
          <mxGeometry x="1241" y="400" width="70" height="40" as="geometry" />
        </mxCell>
        <mxCell id="Cw4v4y6tv-VzNez0efr1-87" style="edgeStyle=orthogonalEdgeStyle;rounded=0;orthogonalLoop=1;jettySize=auto;html=1;exitX=0;exitY=0.5;exitDx=0;exitDy=0;entryX=1;entryY=0.5;entryDx=0;entryDy=0;" edge="1" parent="1" source="Cw4v4y6tv-VzNez0efr1-85" target="Cw4v4y6tv-VzNez0efr1-83">
          <mxGeometry relative="1" as="geometry" />
        </mxCell>
        <mxCell id="Cw4v4y6tv-VzNez0efr1-85" value="ABC" style="rounded=0;whiteSpace=wrap;html=1;" vertex="1" parent="1">
          <mxGeometry x="1420" y="200" width="100" height="40" as="geometry" />
        </mxCell>
        <mxCell id="Cw4v4y6tv-VzNez0efr1-88" style="edgeStyle=orthogonalEdgeStyle;rounded=0;orthogonalLoop=1;jettySize=auto;html=1;exitX=0;exitY=0.5;exitDx=0;exitDy=0;entryX=1;entryY=0.5;entryDx=0;entryDy=0;" edge="1" parent="1" source="Cw4v4y6tv-VzNez0efr1-86" target="Cw4v4y6tv-VzNez0efr1-84">
          <mxGeometry relative="1" as="geometry" />
        </mxCell>
        <mxCell id="Cw4v4y6tv-VzNez0efr1-86" value="XYZ" style="rounded=0;whiteSpace=wrap;html=1;" vertex="1" parent="1">
          <mxGeometry x="1420" y="400" width="100" height="40" as="geometry" />
        </mxCell>
        <mxCell id="Cw4v4y6tv-VzNez0efr1-90" value="..." style="text;html=1;align=center;verticalAlign=middle;resizable=0;points=[];autosize=1;strokeColor=none;fillColor=none;" vertex="1" parent="1">
          <mxGeometry x="1262" y="290" width="30" height="30" as="geometry" />
        </mxCell>
        <mxCell id="Cw4v4y6tv-VzNez0efr1-92" style="edgeStyle=orthogonalEdgeStyle;rounded=0;orthogonalLoop=1;jettySize=auto;html=1;exitX=1;exitY=0.75;exitDx=0;exitDy=0;entryX=0;entryY=0.75;entryDx=0;entryDy=0;dashed=1;endArrow=none;endFill=0;" edge="1" parent="1" source="Cw4v4y6tv-VzNez0efr1-131" target="Cw4v4y6tv-VzNez0efr1-163">
          <mxGeometry relative="1" as="geometry">
            <mxPoint x="470" y="415" as="sourcePoint" />
            <mxPoint x="566" y="415" as="targetPoint" />
            <Array as="points">
              <mxPoint x="456" y="406" />
            </Array>
          </mxGeometry>
        </mxCell>
        <mxCell id="Cw4v4y6tv-VzNez0efr1-93" style="edgeStyle=orthogonalEdgeStyle;rounded=0;orthogonalLoop=1;jettySize=auto;html=1;exitX=0;exitY=0.75;exitDx=0;exitDy=0;entryX=0.5;entryY=1;entryDx=0;entryDy=0;endArrow=none;endFill=0;dashed=1;" edge="1" parent="1" source="Cw4v4y6tv-VzNez0efr1-131" target="Cw4v4y6tv-VzNez0efr1-135">
          <mxGeometry relative="1" as="geometry">
            <mxPoint x="422" y="415.0000000000002" as="sourcePoint" />
            <mxPoint x="247" y="367" as="targetPoint" />
          </mxGeometry>
        </mxCell>
        <mxCell id="Cw4v4y6tv-VzNez0efr1-105" style="edgeStyle=orthogonalEdgeStyle;rounded=0;orthogonalLoop=1;jettySize=auto;html=1;exitX=1;exitY=0.5;exitDx=0;exitDy=0;entryX=0;entryY=0.5;entryDx=0;entryDy=0;" edge="1" parent="1" source="Cw4v4y6tv-VzNez0efr1-11" target="Cw4v4y6tv-VzNez0efr1-38">
          <mxGeometry relative="1" as="geometry" />
        </mxCell>
        <mxCell id="Cw4v4y6tv-VzNez0efr1-108" value="&lt;b&gt;tenant-awareness via resource groups?&lt;/b&gt;" style="ellipse;whiteSpace=wrap;html=1;aspect=fixed;fillColor=#f8cecc;strokeColor=#b85450;" vertex="1" parent="1">
          <mxGeometry x="824" y="447" width="80" height="80" as="geometry" />
        </mxCell>
        <mxCell id="Cw4v4y6tv-VzNez0efr1-116" style="edgeStyle=orthogonalEdgeStyle;rounded=0;orthogonalLoop=1;jettySize=auto;html=1;exitX=0.5;exitY=1;exitDx=0;exitDy=0;entryX=0.5;entryY=0;entryDx=0;entryDy=0;" edge="1" parent="1" source="Cw4v4y6tv-VzNez0efr1-115" target="Cw4v4y6tv-VzNez0efr1-113">
          <mxGeometry relative="1" as="geometry" />
        </mxCell>
        <mxCell id="Cw4v4y6tv-VzNez0efr1-115" value="Enduser" style="shape=image;verticalLabelPosition=bottom;verticalAlign=top;imageAspect=0;aspect=fixed;image=data:image/svg+xml,PHN2ZyB4bWxucz0iaHR0cDovL3d3dy53My5vcmcvMjAwMC9zdmciIHZpZXdCb3g9Ii0wLjAwMDA5MzI4NjUyMjMxNDg4Mzc3IDAuMDAwMDEyNjg4MzM4NzU2NTYxMjggMzYuMDAwMTc1NDc2MDc0MjIgNDcuOTk5OTg4NTU1OTA4MiIgd2lkdGg9IjM2LjAwMDE3NTQ3NjA3NDIyIiBoZWlnaHQ9IjQ3Ljk5OTk4ODU1NTkwODIiPjxkZWZzPjxzdHlsZT4uY2xzLTF7ZmlsbDojNTk1OTU5O308L3N0eWxlPjwvZGVmcz48dGl0bGU+cGVyc29uLXBsYWNlaG9sZGVyPC90aXRsZT48ZyBpZD0iTGF5ZXJfMiIgZGF0YS1uYW1lPSJMYXllciAyIj48ZyBpZD0icGVyc29uLXBsYWNlaG9sZGVyIj48cGF0aCBjbGFzcz0iY2xzLTEiIGQ9Ik0yNCwyNGExMS43MzMsMTEuNzMzLDAsMCwxLDQuNjQxLjkzOCwxMS45NywxMS45NywwLDAsMSw2LjQyMSw2LjQyMUExMS43MzcsMTEuNzM3LDAsMCwxLDM2LDM2VjQ4SDBWMzZhMTEuNzE5LDExLjcxOSwwLDAsMSwuOTM4LTQuNjQxLDEyLjA0NiwxMi4wNDYsMCwwLDEsMi41NzgtMy44NDMsMTIuMTc4LDEyLjE3OCwwLDAsMSwzLjgtMi41NzhBMTEuNjMxLDExLjYzMSwwLDAsMSwxMiwyNEgyNFptOSwxMmE4Ljk2Myw4Ljk2MywwLDAsMC05LTlIMTJhOC42ODIsOC42ODIsMCwwLDAtNi4zNzUsMi42MjVBOC42ODEsOC42ODEsMCwwLDAsMywzNnY5SDMzWk0zMCwxMmExMS42MzEsMTEuNjMxLDAsMCwxLS45MzgsNC42ODgsMTIuMTc4LDEyLjE3OCwwLDAsMS0yLjU3OCwzLjgsMTIuMDE5LDEyLjAxOSwwLDAsMS0zLjg0MywyLjU3OCwxMi4wNjcsMTIuMDY3LDAsMCwxLTkuMzI5LDAsMTIuMjI0LDEyLjIyNCwwLDAsMS02LjM3NC02LjM3NEExMS42MTQsMTEuNjE0LDAsMCwxLDYsMTJhMTEuNzE5LDExLjcxOSwwLDAsMSwuOTM4LTQuNjQxQTEyLjA0NiwxMi4wNDYsMCwwLDEsOS41MTYsMy41MTZhMTIuMTc4LDEyLjE3OCwwLDAsMSwzLjgtMi41NzgsMTIuMDY3LDEyLjA2NywwLDAsMSw5LjMyOSwwLDExLjk3LDExLjk3LDAsMCwxLDYuNDIxLDYuNDIxQTExLjczNywxMS43MzcsMCwwLDEsMzAsMTJaTTE4LDIxYTguNjgxLDguNjgxLDAsMCwwLDYuMzc1LTIuNjI1QTguNjgyLDguNjgyLDAsMCwwLDI3LDEyYTguNjg1LDguNjg1LDAsMCwwLTIuNjI1LTYuMzc1QTguNjg1LDguNjg1LDAsMCwwLDE4LDNhOC42ODIsOC42ODIsMCwwLDAtNi4zNzUsMi42MjVBOC42ODEsOC42ODEsMCwwLDAsOSwxMmE4LjY3OCw4LjY3OCwwLDAsMCwyLjYyNSw2LjM3NUE4LjY3OCw4LjY3OCwwLDAsMCwxOCwyMVoiLz48L2c+PC9nPjwvc3ZnPg==;labelBackgroundColor=default;" vertex="1" parent="1">
          <mxGeometry x="37" y="137" width="36" height="48" as="geometry" />
        </mxCell>
        <mxCell id="Cw4v4y6tv-VzNez0efr1-119" value="" style="group" vertex="1" connectable="0" parent="1">
          <mxGeometry x="10" y="247" width="90" height="200" as="geometry" />
        </mxCell>
        <mxCell id="Cw4v4y6tv-VzNez0efr1-113" value="" style="rounded=0;whiteSpace=wrap;html=1;" vertex="1" parent="Cw4v4y6tv-VzNez0efr1-119">
          <mxGeometry width="90" height="200" as="geometry" />
        </mxCell>
        <mxCell id="Cw4v4y6tv-VzNez0efr1-111" value="Computer" style="shape=image;verticalLabelPosition=bottom;verticalAlign=top;imageAspect=0;aspect=fixed;image=data:image/svg+xml,PHN2ZyB4bWxucz0iaHR0cDovL3d3dy53My5vcmcvMjAwMC9zdmciIHZpZXdCb3g9Ii0wLjAwMDExNzkzOTg5Njg4MTU4MDM1IC0wLjAwMjIyMjEyMjYyNDUxNjQ4NyA0OC4wMDAxMTgyNTU2MTUyMzQgNDIuMDAyMzM4NDA5NDIzODMiIHdpZHRoPSI0OC4wMDAxMTgyNTU2MTUyMzQiIGhlaWdodD0iNDIuMDAyMzM4NDA5NDIzODMiPjxkZWZzPjxzdHlsZT4uY2xzLTF7ZmlsbDojNTk1OTU5O308L3N0eWxlPjwvZGVmcz48dGl0bGU+bGFwdG9wPC90aXRsZT48ZyBpZD0iTGF5ZXJfMiIgZGF0YS1uYW1lPSJMYXllciAyIj48ZyBpZD0ibGFwdG9wIj48cGF0aCBjbGFzcz0iY2xzLTEiIGQ9Ik00OCwzOC41MzFBMy41MjEsMy41MjEsMCwwLDEsNDQuNTMyLDQySDMuNDY5YTMuMzMyLDMuMzMyLDAsMCwxLTIuNDM4LTEuMDMxQTMuMzMyLDMuMzMyLDAsMCwxLDAsMzguNTMxTDYuODQ0LDMwSDQxLjE1N1pNOSwyN2EyLjgzMywyLjgzMywwLDAsMS0yLjE1Ni0uODkxQTIuOTYxLDIuOTYxLDAsMCwxLDYsMjRWM0EyLjg4OSwyLjg4OSwwLDAsMSw5LDBIMzlhMi45NjYsMi45NjYsMCwwLDEsMi4xMS44NDRBMi44MzcsMi44MzcsMCwwLDEsNDIsM1YyNGEzLjA0MSwzLjA0MSwwLDAsMS0zLDNabTAtM0gzOVYzSDlaTTMwLDM5bC0zLTNIMjFsLTMsM1oiLz48L2c+PC9nPjwvc3ZnPg==" vertex="1" parent="Cw4v4y6tv-VzNez0efr1-119">
          <mxGeometry x="20" y="25" width="48" height="42" as="geometry" />
        </mxCell>
        <mxCell id="Cw4v4y6tv-VzNez0efr1-112" value="Mobile" style="shape=image;verticalLabelPosition=bottom;verticalAlign=top;imageAspect=0;aspect=fixed;image=data:image/svg+xml,PHN2ZyB4bWxucz0iaHR0cDovL3d3dy53My5vcmcvMjAwMC9zdmciIHZpZXdCb3g9Ii0wLjAwMTE1OTgxOTQyNTA4MzY5NjggLTAuMDAwMjE0OTc5MTY4OTU4OTYxOTYgMzAuMDAyMzE5MzM1OTM3NSA0OC4wMDA1NzYwMTkyODcxMSIgd2lkdGg9IjMwLjAwMjMxOTMzNTkzNzUiIGhlaWdodD0iNDguMDAwNTc2MDE5Mjg3MTEiPjxkZWZzPjxzdHlsZT4uY2xzLTF7ZmlsbDojNTk1OTU5O308L3N0eWxlPjwvZGVmcz48dGl0bGU+aXBob25lPC90aXRsZT48ZyBpZD0iTGF5ZXJfMiIgZGF0YS1uYW1lPSJMYXllciAyIj48ZyBpZD0iaXBob25lIj48cGF0aCBjbGFzcz0iY2xzLTEiIGQ9Ik0yNCwwYTUuNzcxLDUuNzcxLDAsMCwxLDQuMjE5LDEuNzgxQTUuNzY5LDUuNzY5LDAsMCwxLDMwLDZWNDJhNS43MjUsNS43MjUsMCwwLDEtMS43ODEsNC4yNjZBNS44NDQsNS44NDQsMCwwLDEsMjQsNDhINmE1Ljg0Miw1Ljg0MiwwLDAsMS00LjIxOS0xLjczNEE1LjcyNSw1LjcyNSwwLDAsMSwwLDQyVjZBNS43NjksNS43NjksMCwwLDEsMS43ODEsMS43ODEsNS43Nyw1Ljc3LDAsMCwxLDYsMFptMyw2SDNWMzlIMjdaTTE1LDQ1YTIuMjU3LDIuMjU3LDAsMCwwLDEuNTk0LS42MDksMi4xMzcsMi4xMzcsMCwwLDAsLjY1Ni0xLjY0MSwyLjI1LDIuMjUsMCwxLDAtNC41LDAsMi4xMzMsMi4xMzMsMCwwLDAsLjY1NiwxLjY0MUEyLjI1MywyLjI1MywwLDAsMCwxNSw0NVoiLz48L2c+PC9nPjwvc3ZnPg==" vertex="1" parent="Cw4v4y6tv-VzNez0efr1-119">
          <mxGeometry x="29" y="111" width="30" height="48" as="geometry" />
        </mxCell>
        <mxCell id="Cw4v4y6tv-VzNez0efr1-124" style="edgeStyle=orthogonalEdgeStyle;rounded=0;orthogonalLoop=1;jettySize=auto;html=1;exitX=0;exitY=0.5;exitDx=0;exitDy=0;entryX=0.5;entryY=0;entryDx=0;entryDy=0;" edge="1" parent="1" source="Cw4v4y6tv-VzNez0efr1-164" target="Cw4v4y6tv-VzNez0efr1-182">
          <mxGeometry relative="1" as="geometry">
            <mxPoint x="566" y="280" as="sourcePoint" />
            <mxPoint x="515" y="471.5799999999999" as="targetPoint" />
          </mxGeometry>
        </mxCell>
        <mxCell id="Cw4v4y6tv-VzNez0efr1-127" value="Auto&#xa;Scaler" style="shape=image;verticalLabelPosition=bottom;verticalAlign=top;imageAspect=0;aspect=fixed;image=data:image/svg+xml,PHN2ZyB4bWxucz0iaHR0cDovL3d3dy53My5vcmcvMjAwMC9zdmciIGlkPSJhcHBhdXRvc2NhbGluZyIgdmlld0JveD0iNi45OTc3Nzc0NjIwMDU2MTUgNi45OTg2NTY3NDk3MjUzNDIgNDIuMDA0NDQ0MTIyMzE0NDUgNDIuMDAzNTYyOTI3MjQ2MDk0IiB3aWR0aD0iNDIuMDA0NDQ0MTIyMzE0NDUiIGhlaWdodD0iNDIuMDAzNTYyOTI3MjQ2MDk0Ij48ZGVmcz48c3R5bGU+LmNscy0xe2ZpbGw6IzBhNmVkMTt9LmNscy0ye2ZpbGw6IzA1M2I3MDt9PC9zdHlsZT48L2RlZnM+PHRpdGxlPmFwcGF1dG9zY2FsaW5nPC90aXRsZT48cGF0aCBjbGFzcz0iY2xzLTEiIGQ9Ik0xMy43LDQyLjNhMi4zMzMsMi4zMzMsMCwwLDAsMS44NDcuNzExbDkuOTQ3LS4yODRBMS4xODksMS4xODksMCwwLDAsMjYuOCw0MS40MnEuMDU3LTEuMzA4LTEuMzA3LTEuMzA3bC04LjEyOC40LDIzLjEzLTIzLjEzLS40LDguMTI4YTEuMzA4LDEuMzA4LDAsMSwwLDIuNjE1LDBMNDMsMTUuNTYyQTIuNDM1LDIuNDM1LDAsMCwwLDQwLjQzOCwxM2wtOS44OS4zNDFhMS4zMDgsMS4zMDgsMCwxLDAsMCwyLjYxNWw4LjEyOC0uNC0yMy4xMywyMy4xM0wxNiwzMC42MnEuMDU1LTEuMzA4LTEuMzA4LTEuMzA3YTEuMTg5LDEuMTg5LDAsMCwwLTEuMzA3LDEuMzA3bC0uNCw5LjgzNEEyLjMzMywyLjMzMywwLDAsMCwxMy43LDQyLjNaIi8+PHBhdGggY2xhc3M9ImNscy0yIiBkPSJNNDguMTU2LDcuODkxQTIuODQ4LDIuODQ4LDAsMCwwLDQ2LDdIMTlhMi44NDQsMi44NDQsMCwwLDAtMi4xNTYuODkxQTIuOTYyLDIuOTYyLDAsMCwwLDE2LDEwVjI4aDNWMTBINDZWMzdIMjh2M0g0NmEyLjg4OSwyLjg4OSwwLDAsMCwzLTNWMTBBMi45NjIsMi45NjIsMCwwLDAsNDguMTU2LDcuODkxWiIvPjxwYXRoIGNsYXNzPSJjbHMtMiIgZD0iTTI4LDQ2SDEwVjI4aDNWMjVIMTBhMi44NDQsMi44NDQsMCwwLDAtMi4xNTYuODkxQTIuOTYyLDIuOTYyLDAsMCwwLDcsMjhWNDZhMi44ODksMi44ODksMCwwLDAsMywzSDI4YTIuODg5LDIuODg5LDAsMCwwLDMtM1Y0M0gyOFoiLz48L3N2Zz4=" vertex="1" parent="1">
          <mxGeometry x="638" y="615.41" width="42" height="42" as="geometry" />
        </mxCell>
        <mxCell id="Cw4v4y6tv-VzNez0efr1-129" value="Custom&#xa;Domain" style="shape=image;verticalLabelPosition=bottom;verticalAlign=top;imageAspect=0;aspect=fixed;image=data:image/svg+xml,PHN2ZyB4bWxucz0iaHR0cDovL3d3dy53My5vcmcvMjAwMC9zdmciIGlkPSJjdXN0b20tZG9tYWluIiB2aWV3Qm94PSIzLjk5MzM0NjQ1MjcxMzAxMjcgNi45OTMzNDY2OTExMzE1OTIgNDguMDA2NjUyODMyMDMxMjUgNDIuMDA2NzAyNDIzMDk1NyIgd2lkdGg9IjQ4LjAwNjY1MjgzMjAzMTI1IiBoZWlnaHQ9IjQyLjAwNjcwMjQyMzA5NTciPjxkZWZzPjxzdHlsZT4uY2xzLTF7ZmlsbDojMDUzYjcwO30uY2xzLTJ7ZmlsbDojMGE2ZWQxO308L3N0eWxlPjwvZGVmcz48dGl0bGU+Y3VzdG9tLWRvbWFpbjwvdGl0bGU+PHJlY3QgY2xhc3M9ImNscy0xIiB4PSIzNCIgeT0iNyIgd2lkdGg9IjEyIiBoZWlnaHQ9IjMiIHJ4PSIwLjc1Ii8+PHJlY3QgY2xhc3M9ImNscy0xIiB4PSIxOSIgeT0iNyIgd2lkdGg9IjEyIiBoZWlnaHQ9IjMiIHJ4PSIwLjc1Ii8+PHBhdGggY2xhc3M9ImNscy0xIiBkPSJNNCw0NnYwYTIuODc3LDIuODc3LDAsMCwwLC4yMzYsMS4xNTcsMy4wMjgsMy4wMjgsMCwwLDAsMS42MDYsMS42MDdBMi44NzUsMi44NzUsMCwwLDAsNyw0OUg0OWEzLjAxMywzLjAxMywwLDAsMCwzLTNWMTZhMy4wMTMsMy4wMTMsMCwwLDAtMy0zSDE2VjcuNzVBLjY2NC42NjQsMCwwLDAsMTUuMjUsN0g0Ljc1QS42NjMuNjYzLDAsMCwwLDQsNy43NVpNNDksMTZsMCwwLDAsMzBMNyw0Niw3LDE2WiIvPjxwYXRoIGNsYXNzPSJjbHMtMiIgZD0iTTM5LjIxNCwyNi43M2ExMi43NDUsMTIuNzQ1LDAsMCwwLTIuMTA3LTMuNTczLDExLjkxNCwxMS45MTQsMCwwLDAtMy4yMS0yLjYyOCwxMi4wNTUsMTIuMDU1LDAsMCwwLTMuOTktMS4zOTNsMCwwYy0uMzE3LS4wNDYtLjYyNC0uMDc4LS45MjEtLjFhMTUuNjkxLDE1LjY5MSwwLDAsMC0xLjksMGMtLjI5NC4wMjYtLjYuMDU4LS45MjIuMTA3YTExLjY2MywxMS42NjMsMCwwLDAtNC4wMjQsMS40LDEyLjQ4MiwxMi40ODIsMCwwLDAtMy4yLDIuNjIyLDEyLjE2MSwxMi4xNjEsMCwwLDAtMi4xNDYsMy41NzlBMTEuNjkxLDExLjY5MSwwLDAsMCwxNiwzMWExMS40NzIsMTEuNDcyLDAsMCwwLC45NTcsNC42NDIsMTIuMjIxLDEyLjIyMSwwLDAsMCw2LjQsNi40QTExLjUsMTEuNSwwLDAsMCwyOCw0M2ExMS42MzgsMTEuNjM4LDAsMCwwLDQuNzA3LS45NTcsMTIuMzg5LDEyLjM4OSwwLDAsMCwzLjgxNS0yLjU4NkExMS45MDYsMTEuOTA2LDAsMCwwLDQwLDMxLDExLjcxOSwxMS43MTksMCwwLDAsMzkuMjE0LDI2LjczWm0tMy4zMTQtMUgzMi40NzdhMTMuMjUxLDEzLjI1MSwwLDAsMC0yLjEwNy0zLjg4NEE4Ljk0MSw4Ljk0MSwwLDAsMSwzNS45LDI1LjczWm0tNC4wMTYsNWExMS43NjUsMTEuNzY1LDAsMCwxLS4xMzIsMS43NzhBMTQuNzgyLDE0Ljc4MiwwLDAsMSwzMS40MjMsMzRoLTYuNzhhMTQuMjUyLDE0LjI1MiwwLDAsMS0uMzI5LTEuNDg5LDExLjUxMSwxMS41MTEsMCwwLDEtLjEzMi0xLjc3OEExMi4xODMsMTIuMTgzLDAsMCwxLDI0LjUxMSwyOGg3LjA0NEExMi4zLDEyLjMsMCwwLDEsMzEuODg0LDMwLjczM1pNMjgsMjEuNjQ5YTcuNDExLDcuNDExLDAsMCwxLDEuNjc5LDEuNzExLDExLjE3MiwxMS4xNzIsMCwwLDEsMS4yODMsMi4zN0gyNS4xQTguNzQxLDguNzQxLDAsMCwxLDI4LDIxLjY0OVptLTIuMy4yYTEzLjE4MiwxMy4xODIsMCwwLDAtMi4xMDcsMy44ODRIMjAuMTY2QTguOTMsOC45MywwLDAsMSwyNS43LDIxLjg0NlpNMTkuMTEzLDM0YTguNjM1LDguNjM1LDAsMCwxLS40MjgtMS4zNTgsOC4yODgsOC4yODgsMCwwLDEsMC0zLjI5MUE4LjU4NCw4LjU4NCwwLDAsMSwxOS4xMTMsMjhoMy45NWExMi4xODMsMTIuMTgzLDAsMCwwLS4zMjksMi43MzNBMTIuODI1LDEyLjgyNSwwLDAsMCwyMy4xMjgsMzRaTTIyLjgsMzguODYzYTEwLjIyMywxMC4yMjMsMCwwLDEtMi42MzMtMi42aDMuNTU1YTEyLjM1NiwxMi4zNTYsMCwwLDAsMi41NjcsNC4wMTZBOC42NjMsOC42NjMsMCwwLDEsMjIuOCwzOC44NjNaTTI4LDM5Ljg4NGE3LjQ2NCw3LjQ2NCwwLDAsMS0xLjQ4MS0xLjUxNEExMC43NDUsMTAuNzQ1LDAsMCwxLDI1LjMsMzYuMjYzaDUuNDY0QTguMDgxLDguMDgxLDAsMCwxLDI4LDM5Ljg4NFptNS4yNjYtMS4wMjFhOC42NjMsOC42NjMsMCwwLDEtMy40ODksMS40MTYsMTIuNDQsMTIuNDQsMCwwLDAsMi41NjgtNC4wMTZIMzUuOUExMC4yNDMsMTAuMjQzLDAsMCwxLDMzLjI2NiwzOC44NjNaTTM2Ljk1MywzNEgzMi45MzdhOC4yNjksOC4yNjksMCwwLDAsLjI2NC0xLjQ4OXEuMDY1LS44NTUuMDY1LTEuNzc4QTEyLjU5LDEyLjU5LDAsMCwwLDMzLDI4aDMuOTVhOC44LDguOCwwLDAsMSwwLDZaIi8+PC9zdmc+" vertex="1" parent="1">
          <mxGeometry x="711" y="616.41" width="48" height="42" as="geometry" />
        </mxCell>
        <mxCell id="Cw4v4y6tv-VzNez0efr1-131" value="Auth &amp; Trust &#xa;(Application Plan)" style="shape=image;verticalLabelPosition=bottom;verticalAlign=top;imageAspect=0;aspect=fixed;image=data:image/svg+xml,PHN2ZyB4bWxucz0iaHR0cDovL3d3dy53My5vcmcvMjAwMC9zdmciIGlkPSJhdXRob3JpemF0aW9uLW1hbmFnZW1lbnQiIHZpZXdCb3g9IjYuOTk5ODk4OTEwNTIyNDYxIDMuOTk5ODU2OTQ4ODUyNTM5IDQyLjAwMDYyNTYxMDM1MTU2IDQ4LjAwMDE0NDk1ODQ5NjA5NCIgd2lkdGg9IjQyLjAwMDYyNTYxMDM1MTU2IiBoZWlnaHQ9IjQ4LjAwMDE0NDk1ODQ5NjA5NCI+PGRlZnM+PHN0eWxlPi5jbHMtMXtmaWxsOiMwNTNiNzA7fS5jbHMtMntmaWxsOiMwYTZlZDE7fTwvc3R5bGU+PC9kZWZzPjx0aXRsZT5hdXRob3JpemF0aW9uLW1hbmFnZW1lbnQ8L3RpdGxlPjxwYXRoIGNsYXNzPSJjbHMtMSIgZD0iTTQ4LjY1OCwxNC4wMmEyLjQsMi40LDAsMCwwLS45MDgtLjg3OWguMDFWOS42MjVhNC45ODksNC45ODksMCwwLDAtLjQ4OS0yLjE4N0E1LjYsNS42LDAsMCwwLDQ1LjkyNCw1LjY2YTYuNzI4LDYuNzI4LDAsMCwwLTEuOTkyLTEuMjExQTYuNTI0LDYuNTI0LDAsMCwwLDQxLjUxLDRhNi42NzEsNi42NzEsMCwwLDAtMi40NDIuNDQ5QTYuMzY2LDYuMzY2LDAsMCwwLDM3LjA3Niw1LjY2YTUuNzI3LDUuNzI3LDAsMCwwLTEuMzI4LDEuNzc4LDQuOTc0LDQuOTc0LDAsMCwwLS40ODgsMi4xODdsLS4wMzksMy41MTEtLjAxLjAwNWEyLjQ4MiwyLjQ4MiwwLDAsMC0uODc5Ljg3OUEyLjQ1MywyLjQ1MywwLDAsMCwzNCwxNS4yODlWMjEuNUEyLjQ2OSwyLjQ2OSwwLDAsMCwzNi41LDI0aDEwYTIuNDQzLDIuNDQzLDAsMCwwLDEuNzU4LS43MjNBMi4zODYsMi4zODYsMCwwLDAsNDksMjEuNVYxNS4yODlBMi4zNDIsMi4zNDIsMCwwLDAsNDguNjU4LDE0LjAyWk0zNy4wMSw5LjYwNWE0LjAxOCw0LjAxOCwwLDAsMSwxLjUtMy4xOTMsNC4xNTQsNC4xNTQsMCwwLDEsMy0uOTEyLDQuMTc2LDQuMTc2LDAsMCwxLDMsMS4xMTEsMy42NDMsMy42NDMsMCwwLDEsMS41LDIuOTk0VjEyLjc1SDM2Ljk3MVpNNDIuNSwxNy44MzR2Mi45MzFhLjgzMi44MzIsMCwwLDEtMS42NjMsMFYxNy44MzRhMS41MzQsMS41MzQsMCwwLDEtLjY1Ni0xLjI2OSwxLjQ4OCwxLjQ4OCwwLDEsMSwyLjk3NSwwQTEuNTM2LDEuNTM2LDAsMCwxLDQyLjUsMTcuODM0WiIvPjxwYXRoIGNsYXNzPSJjbHMtMiIgZD0iTTMzLjMsMzkuNTJBOC45OCw4Ljk4LDAsMCwwLDI4LjQ4LDM0LjcsOC44MDksOC44MDksMCwwLDAsMjUsMzRIMTZhOC43MzQsOC43MzQsMCwwLDAtMy41MTYuNyw5LjE0LDkuMTQsMCwwLDAtMi44NDcsMS45MzRBOS4wMTcsOS4wMTcsMCwwLDAsNy43LDM5LjUyLDguNzkxLDguNzkxLDAsMCwwLDcsNDN2OUgzNFY0M0E4LjgwOSw4LjgwOSwwLDAsMCwzMy4zLDM5LjUyWk0zMSw0OUgxMFY0M2E1Ljc4MSw1Ljc4MSwwLDAsMSwuNDY0LTIuMzA3LDYsNiwwLDAsMSwxLjI5NC0xLjkzNSw2LjEyMiw2LjEyMiwwLDAsMSwxLjkyMS0xLjNBNS43MTYsNS43MTYsMCwwLDEsMTYsMzdoOWE1Ljc4Myw1Ljc4MywwLDAsMSwyLjMuNDYzLDUuOTc5LDUuOTc5LDAsMCwxLDMuMjMyLDMuMjI5QTUuOCw1LjgsMCwwLDEsMzEsNDNaIi8+PHBhdGggY2xhc3M9ImNscy0yIiBkPSJNMjYuODYzLDMxLjM2M0E5LjE0LDkuMTQsMCwwLDAsMjguOCwyOC41MTZhOS4wNTQsOS4wNTQsMCwwLDAsMC03QTguOTgsOC45OCwwLDAsMCwyMy45OCwxNi43YTkuMDU0LDkuMDU0LDAsMCwwLTcsMCw5LjE0LDkuMTQsMCwwLDAtMi44NDcsMS45MzRBOS4wMTcsOS4wMTcsMCwwLDAsMTIuMiwyMS41MmE5LjA1NCw5LjA1NCwwLDAsMCwwLDdBOS4xNzQsOS4xNzQsMCwwLDAsMTYuOTg0LDMzLjNhOS4wNTQsOS4wNTQsMCwwLDAsNywwQTkuMDE3LDkuMDE3LDAsMCwwLDI2Ljg2MywzMS4zNjNaTTIwLjUsMzFhNS43LDUuNywwLDAsMS0yLjMyMi0uNDU1LDYuMTY2LDYuMTY2LDAsMCwxLTMuMjI0LTMuMjI3QTUuNjg0LDUuNjg0LDAsMCwxLDE0LjUsMjVhNS43ODEsNS43ODEsMCwwLDEsLjQ2NC0yLjMwNyw2LDYsMCwwLDEsMS4yOTQtMS45MzUsNi4xMjIsNi4xMjIsMCwwLDEsMS45MjEtMS4zQTUuNzE2LDUuNzE2LDAsMCwxLDIwLjUsMTlhNS43ODMsNS43ODMsMCwwLDEsMi4zLjQ2Myw1Ljk3OSw1Ljk3OSwwLDAsMSwzLjIzMiwzLjIyOUE1LjgsNS44LDAsMCwxLDI2LjUsMjVhNS43MTYsNS43MTYsMCwwLDEtLjQ1NCwyLjMxOSw2LjEyNyw2LjEyNywwLDAsMS0xLjMsMS45MjMsNi4wMDksNi4wMDksMCwwLDEtMS45MzcsMS4yOTVBNS43ODEsNS43ODEsMCwwLDEsMjAuNSwzMVoiLz48L3N2Zz4=" vertex="1" parent="1">
          <mxGeometry x="414" y="371" width="42" height="48" as="geometry" />
        </mxCell>
        <mxCell id="Cw4v4y6tv-VzNez0efr1-132" value="Auth &amp; Trust&#xa;(Broker Plan)" style="shape=image;verticalLabelPosition=bottom;verticalAlign=top;imageAspect=0;aspect=fixed;image=data:image/svg+xml,PHN2ZyB4bWxucz0iaHR0cDovL3d3dy53My5vcmcvMjAwMC9zdmciIGlkPSJhdXRob3JpemF0aW9uLW1hbmFnZW1lbnQiIHZpZXdCb3g9IjYuOTk5ODk4OTEwNTIyNDYxIDMuOTk5ODU2OTQ4ODUyNTM5IDQyLjAwMDYyNTYxMDM1MTU2IDQ4LjAwMDE0NDk1ODQ5NjA5NCIgd2lkdGg9IjQyLjAwMDYyNTYxMDM1MTU2IiBoZWlnaHQ9IjQ4LjAwMDE0NDk1ODQ5NjA5NCI+PGRlZnM+PHN0eWxlPi5jbHMtMXtmaWxsOiMwNTNiNzA7fS5jbHMtMntmaWxsOiMwYTZlZDE7fTwvc3R5bGU+PC9kZWZzPjx0aXRsZT5hdXRob3JpemF0aW9uLW1hbmFnZW1lbnQ8L3RpdGxlPjxwYXRoIGNsYXNzPSJjbHMtMSIgZD0iTTQ4LjY1OCwxNC4wMmEyLjQsMi40LDAsMCwwLS45MDgtLjg3OWguMDFWOS42MjVhNC45ODksNC45ODksMCwwLDAtLjQ4OS0yLjE4N0E1LjYsNS42LDAsMCwwLDQ1LjkyNCw1LjY2YTYuNzI4LDYuNzI4LDAsMCwwLTEuOTkyLTEuMjExQTYuNTI0LDYuNTI0LDAsMCwwLDQxLjUxLDRhNi42NzEsNi42NzEsMCwwLDAtMi40NDIuNDQ5QTYuMzY2LDYuMzY2LDAsMCwwLDM3LjA3Niw1LjY2YTUuNzI3LDUuNzI3LDAsMCwwLTEuMzI4LDEuNzc4LDQuOTc0LDQuOTc0LDAsMCwwLS40ODgsMi4xODdsLS4wMzksMy41MTEtLjAxLjAwNWEyLjQ4MiwyLjQ4MiwwLDAsMC0uODc5Ljg3OUEyLjQ1MywyLjQ1MywwLDAsMCwzNCwxNS4yODlWMjEuNUEyLjQ2OSwyLjQ2OSwwLDAsMCwzNi41LDI0aDEwYTIuNDQzLDIuNDQzLDAsMCwwLDEuNzU4LS43MjNBMi4zODYsMi4zODYsMCwwLDAsNDksMjEuNVYxNS4yODlBMi4zNDIsMi4zNDIsMCwwLDAsNDguNjU4LDE0LjAyWk0zNy4wMSw5LjYwNWE0LjAxOCw0LjAxOCwwLDAsMSwxLjUtMy4xOTMsNC4xNTQsNC4xNTQsMCwwLDEsMy0uOTEyLDQuMTc2LDQuMTc2LDAsMCwxLDMsMS4xMTEsMy42NDMsMy42NDMsMCwwLDEsMS41LDIuOTk0VjEyLjc1SDM2Ljk3MVpNNDIuNSwxNy44MzR2Mi45MzFhLjgzMi44MzIsMCwwLDEtMS42NjMsMFYxNy44MzRhMS41MzQsMS41MzQsMCwwLDEtLjY1Ni0xLjI2OSwxLjQ4OCwxLjQ4OCwwLDEsMSwyLjk3NSwwQTEuNTM2LDEuNTM2LDAsMCwxLDQyLjUsMTcuODM0WiIvPjxwYXRoIGNsYXNzPSJjbHMtMiIgZD0iTTMzLjMsMzkuNTJBOC45OCw4Ljk4LDAsMCwwLDI4LjQ4LDM0LjcsOC44MDksOC44MDksMCwwLDAsMjUsMzRIMTZhOC43MzQsOC43MzQsMCwwLDAtMy41MTYuNyw5LjE0LDkuMTQsMCwwLDAtMi44NDcsMS45MzRBOS4wMTcsOS4wMTcsMCwwLDAsNy43LDM5LjUyLDguNzkxLDguNzkxLDAsMCwwLDcsNDN2OUgzNFY0M0E4LjgwOSw4LjgwOSwwLDAsMCwzMy4zLDM5LjUyWk0zMSw0OUgxMFY0M2E1Ljc4MSw1Ljc4MSwwLDAsMSwuNDY0LTIuMzA3LDYsNiwwLDAsMSwxLjI5NC0xLjkzNSw2LjEyMiw2LjEyMiwwLDAsMSwxLjkyMS0xLjNBNS43MTYsNS43MTYsMCwwLDEsMTYsMzdoOWE1Ljc4Myw1Ljc4MywwLDAsMSwyLjMuNDYzLDUuOTc5LDUuOTc5LDAsMCwxLDMuMjMyLDMuMjI5QTUuOCw1LjgsMCwwLDEsMzEsNDNaIi8+PHBhdGggY2xhc3M9ImNscy0yIiBkPSJNMjYuODYzLDMxLjM2M0E5LjE0LDkuMTQsMCwwLDAsMjguOCwyOC41MTZhOS4wNTQsOS4wNTQsMCwwLDAsMC03QTguOTgsOC45OCwwLDAsMCwyMy45OCwxNi43YTkuMDU0LDkuMDU0LDAsMCwwLTcsMCw5LjE0LDkuMTQsMCwwLDAtMi44NDcsMS45MzRBOS4wMTcsOS4wMTcsMCwwLDAsMTIuMiwyMS41MmE5LjA1NCw5LjA1NCwwLDAsMCwwLDdBOS4xNzQsOS4xNzQsMCwwLDAsMTYuOTg0LDMzLjNhOS4wNTQsOS4wNTQsMCwwLDAsNywwQTkuMDE3LDkuMDE3LDAsMCwwLDI2Ljg2MywzMS4zNjNaTTIwLjUsMzFhNS43LDUuNywwLDAsMS0yLjMyMi0uNDU1LDYuMTY2LDYuMTY2LDAsMCwxLTMuMjI0LTMuMjI3QTUuNjg0LDUuNjg0LDAsMCwxLDE0LjUsMjVhNS43ODEsNS43ODEsMCwwLDEsLjQ2NC0yLjMwNyw2LDYsMCwwLDEsMS4yOTQtMS45MzUsNi4xMjIsNi4xMjIsMCwwLDEsMS45MjEtMS4zQTUuNzE2LDUuNzE2LDAsMCwxLDIwLjUsMTlhNS43ODMsNS43ODMsMCwwLDEsMi4zLjQ2Myw1Ljk3OSw1Ljk3OSwwLDAsMSwzLjIzMiwzLjIyOUE1LjgsNS44LDAsMCwxLDI2LjUsMjVhNS43MTYsNS43MTYsMCwwLDEtLjQ1NCwyLjMxOSw2LjEyNyw2LjEyNywwLDAsMS0xLjMsMS45MjMsNi4wMDksNi4wMDksMCwwLDEtMS45MzcsMS4yOTVBNS43ODEsNS43ODEsMCwwLDEsMjAuNSwzMVoiLz48L3N2Zz4=" vertex="1" parent="1">
          <mxGeometry x="812" y="262" width="42" height="48" as="geometry" />
        </mxCell>
        <mxCell id="Cw4v4y6tv-VzNez0efr1-133" value="CI/CD" style="shape=image;verticalLabelPosition=bottom;verticalAlign=top;imageAspect=0;aspect=fixed;image=data:image/svg+xml,PHN2ZyB4bWxucz0iaHR0cDovL3d3dy53My5vcmcvMjAwMC9zdmciIGlkPSJjb250aW51b3VzLWludGVncmF0aW9uLWFuZC1kZWxpdmVyeV8tX1JFTUFLRV9JTl9RVUFSVFpfQ09MT1JTX2ljb25fb3JpZ2luX3VuY2VydGFpbl8iIGRhdGEtbmFtZT0iY29udGludW91cy1pbnRlZ3JhdGlvbi1hbmQtZGVsaXZlcnkgLSBSRU1BS0UgSU4gUVVBUlRaIENPTE9SUyAoaWNvbiBvcmlnaW4gdW5jZXJ0YWluKSIgdmlld0JveD0iMy40OTk4NzY5NzYwMTMxODM2IDUuMzQ3OTUxNDEyMjAwOTI4IDQ4LjAwMDE2MDIxNzI4NTE1NiA0NS4zMDUyMzY4MTY0MDYyNSIgd2lkdGg9IjQ4LjAwMDE2MDIxNzI4NTE1NiIgaGVpZ2h0PSI0NS4zMDUyMzY4MTY0MDYyNSI+PGRlZnM+PHN0eWxlPi5jbHMtMXtmaWxsOiMwYTZlZDE7fS5jbHMtMntmaWxsOiMwNTNiNzA7fTwvc3R5bGU+PC9kZWZzPjxwYXRoIGNsYXNzPSJjbHMtMSIgZD0iTTUxLjUsMjhhMjIuNTA3LDIyLjUwNywwLDAsMS03LjczLDE2Ljk1OSwzLjUsMy41LDAsMCwwLS40Mi0xLjA0OSw0LjE0NSw0LjE0NSwwLDAsMC0xLjQwOC0xLjQ2OEExOS41MTQsMTkuNTE0LDAsMCwwLDQ4LjM4NCwyOCwxOS4yMzYsMTkuMjM2LDAsMCwwLDQ1LjYsMTcuOTkybDIuNjY3LTEuNjE4QTIyLjM4MywyMi4zODMsMCwwLDEsNTEuNSwyOFoiLz48cGF0aCBjbGFzcz0iY2xzLTEiIGQ9Ik0yOS4zODgsNTAuNTMyaC0uNDJBMjIuNTQxLDIyLjU0MSwwLDAsMSw2Ljg1NiwzMi4zMTVhMy42NDIsMy42NDIsMCwwLDAsMS4xMzguMTc5LDQuMDIxLDQuMDIxLDAsMCwwLDEuOTc4LS40NzksMTkuNDY3LDE5LjQ2NywwLDAsMCwxOSwxNS40aC4zNloiLz48cGF0aCBjbGFzcz0iY2xzLTEiIGQ9Ik0zNi4yNzksNi43YTQuMTE0LDQuMTE0LDAsMCwwLS43MTkuOSw0LjI4NCw0LjI4NCwwLDAsMC0uNTY5LDEuOTQ4LDE5LjQxNywxOS40MTcsMCwwLDAtMjMuMDEyLDkuMDQ5bC0yLjcyNi0xLjVBMjIuNDkyLDIyLjQ5MiwwLDAsMSwzNi4yNzksNi43WiIvPjxwYXRoIGNsYXNzPSJjbHMtMiIgZD0iTTcuOTk0LDIzLjUwNkE0LjQ4OCw0LjQ4OCwwLDAsMCwzLjUsMjhhNC40MSw0LjQxLDAsMCwwLDMuMzU2LDQuMzE1LDMuNjQyLDMuNjQyLDAsMCwwLDEuMTM4LjE3OSw0LjAyMSw0LjAyMSwwLDAsMCwxLjk3OC0uNDc5QTQuNDQsNC40NCwwLDAsMCwxMi40ODksMjgsNC40ODgsNC40ODgsMCwwLDAsNy45OTQsMjMuNTA2Wm0xLjYxOCw2LjAyMmEyLjE3OSwyLjE3OSwwLDAsMS0zLjA4Ni4xNUEyLjE4NSwyLjE4NSwwLDAsMSw1Ljc0NywyOGEyLjI0OCwyLjI0OCwwLDAsMSw0LjUsMEEyLjE0OCwyLjE0OCwwLDAsMSw5LjYxMiwyOS41MjhaIi8+PHBhdGggY2xhc3M9ImNscy0yIiBkPSJNNDMuNzcsNDQuOTU5YTMuNSwzLjUsMCwwLDAtLjQyLTEuMDQ5LDQuMTQ1LDQuMTQ1LDAsMCwwLTEuNDA4LTEuNDY4LDQuMyw0LjMsMCwwLDAtMi40ODctLjc3OSw0LjY3OSw0LjY3OSwwLDAsMC0yLjI0Ny42LDQuNSw0LjUsMCwwLDAsMi4yNDcsOC4zOSw0LjM1OCw0LjM1OCwwLDAsMCwyLjI0Ny0uNkE0LjQ2OSw0LjQ2OSwwLDAsMCw0My43Nyw0NC45NTlabS0yLjEyOCwxLjY0OGEyLjI0MywyLjI0MywwLDAsMS00LjEzNC42ODksMi4yNjEsMi4yNjEsMCwwLDEsLjgzOC0zLjA4NiwyLjM2MSwyLjM2MSwwLDAsMSwxLjEwOS0uMywxLjUxNCwxLjUxNCwwLDAsMSwuNTA5LjA5QTIuMTQ1LDIuMTQ1LDAsMCwxLDQxLjQsNDUuMDQ5LDIuMDc1LDIuMDc1LDAsMCwxLDQxLjY0Miw0Ni42MDdaIi8+PHBhdGggY2xhc3M9ImNscy0yIiBkPSJNNDEuNyw1Ljk0OGE0LjQ1LDQuNDUsMCwwLDAtNS40MjMuNzQ5LDQuMTE0LDQuMTE0LDAsMCwwLS43MTkuOSw0LjI4NCw0LjI4NCwwLDAsMC0uNTY5LDEuOTQ4LDQuNDkxLDQuNDkxLDAsMCwwLDIuMjE3LDQuMiw0LjY3OSw0LjY3OSwwLDAsMCwyLjI0Ny42QTQuNDk1LDQuNDk1LDAsMCwwLDQxLjcsNS45NDhabS0uMyw1YTIuMjU2LDIuMjU2LDAsMCwxLTEuOTQ4LDEuMTM5LDIuMzYxLDIuMzYxLDAsMCwxLTEuMTA5LS4zLDIuMjI2LDIuMjI2LDAsMCwxLTEuMDE4LTEuMzE4LDIuMDU5LDIuMDU5LDAsMCwxLC4xOC0xLjc2OCwyLjA4NiwyLjA4NiwwLDAsMSwxLjI1OC0uOTg5LDEuNzU1LDEuNzU1LDAsMCwxLC42ODktLjEyQTIuMjMxLDIuMjMxLDAsMCwxLDQxLjQsMTAuOTUxWiIvPjwvc3ZnPg==" vertex="1" parent="1">
          <mxGeometry x="223" y="612.41" width="48" height="45" as="geometry" />
        </mxCell>
        <mxCell id="Cw4v4y6tv-VzNez0efr1-134" value="HTML5 &#xa;App Repo" style="shape=image;verticalLabelPosition=bottom;verticalAlign=top;imageAspect=0;aspect=fixed;image=data:image/svg+xml,PHN2ZyB4bWxucz0iaHR0cDovL3d3dy53My5vcmcvMjAwMC9zdmciIGlkPSJodG1sNS1hcHBsaWNhdGlvbnMiIHZpZXdCb3g9IjMuOTk5MjU0MjI2Njg0NTcwMyA0LjAwMDAwMDQ3NjgzNzE1OCA0OC4wMDA3NDc2ODA2NjQwNiA0OCIgd2lkdGg9IjQ4LjAwMDc0NzY4MDY2NDA2IiBoZWlnaHQ9IjQ4Ij48ZGVmcz48c3R5bGU+LmNscy0xe2ZpbGw6IzA1M2I3MDt9LmNscy0ye2ZpbGw6IzBhNmVkMTt9PC9zdHlsZT48L2RlZnM+PHBhdGggY2xhc3M9ImNscy0xIiBkPSJNNDIuMywxOWE4LjAwOCw4LjAwOCwwLDAsMC00LjA3OC00LjRBNi45NDQsNi45NDQsMCwwLDAsMjcuNzY5LDkuOTI4LDkuNDUzLDkuNDUzLDAsMCwwLDE5LjA2LDRDOS4wNzgsNCw5LjgsMTQuNjIxLDkuOCwxNC42MjFhOC4zODcsOC4zODcsMCwwLDAsMi42MTMsMTYuMzY1SDI4LjAwN3YtM0gxMi40MTNhNS4zODcsNS4zODcsMCwwLDEtMS42NzYtMTAuNTE1bDIuMzA5LS43NTlMMTIuNzgzLDE0LjNhOC4xMTQsOC4xMTQsMCwwLDEsMS41LTUuMjg0LDYuNDg0LDYuNDg0LDAsMCwxLDEwLjcsMi4wMjJsMS4zMDcsMy4yOUwyOS4zMTgsMTIuNWEzLjkyMywzLjkyMywwLDAsMSwyLjA0NC0uNTkxLDMuOTg4LDMuOTg4LDAsMCwxLDMuOTE0LDMuMjQ5bC4yODksMS41MjksMS40MTUuNjQ2QTQuOCw0LjgsMCwwLDEsMzguOTMzLDE5WiIvPjxwb2x5Z29uIGNsYXNzPSJjbHMtMiIgcG9pbnRzPSIzNC4wNyAyNC42OTEgMzUuMzA4IDI0LjY5MSAzNS4zMDggMjYuMDQ2IDM2LjY2IDI2LjA0NiAzNi42NiAyMiAzNS4zMDggMjIgMzUuMzA4IDIzLjMzNiAzNC4wNyAyMy4zMzYgMzQuMDcgMjIgMzIuNzE4IDIyIDMyLjcxOCAyNi4wNDYgMzQuMDcgMjYuMDQ2IDM0LjA3IDI0LjY5MSIvPjxwb2x5Z29uIGNsYXNzPSJjbHMtMiIgcG9pbnRzPSIzOC40MzkgMjYuMDQ2IDM5Ljc5MiAyNi4wNDYgMzkuNzkyIDIzLjM0MiA0MC45ODMgMjMuMzQyIDQwLjk4MyAyMiAzNy4yNDggMjIgMzcuMjQ4IDIzLjM0MiAzOC40MzkgMjMuMzQyIDM4LjQzOSAyNi4wNDYiLz48cG9seWdvbiBjbGFzcz0iY2xzLTIiIHBvaW50cz0iNDIuODk5IDI0LjA0IDQzLjgzIDI1LjQ3OSA0My44NTQgMjUuNDc5IDQ0Ljc4NCAyNC4wNCA0NC43ODQgMjYuMDQ2IDQ2LjEzMSAyNi4wNDYgNDYuMTMxIDIyIDQ0LjcyIDIyIDQzLjg1NCAyMy40MjEgNDIuOTg2IDIyIDQxLjU3NiAyMiA0MS41NzYgMjYuMDQ2IDQyLjg5OSAyNi4wNDYgNDIuODk5IDI0LjA0Ii8+PHBvbHlnb24gY2xhc3M9ImNscy0yIiBwb2ludHM9IjUwLjA1OSAyNC43MDggNDguMTU3IDI0LjcwOCA0OC4xNTcgMjIgNDYuODA0IDIyIDQ2LjgwNCAyNi4wNDYgNTAuMDU5IDI2LjA0NiA1MC4wNTkgMjQuNzA4Ii8+PHBvbHlnb24gY2xhc3M9ImNscy0yIiBwb2ludHM9IjM2LjE3IDM0LjQ5MSAzNi42ODUgNDAuMjY4IDQxLjM2MyA0MC4yNjggNDEuMzc3IDQwLjI2OCA0My45NDUgNDAuMjY4IDQzLjcwMiA0Mi45ODYgNDEuMzYzIDQzLjYxNyA0MS4zNjMgNDMuNjE4IDQxLjM2MSA0My42MTggMzkuMDI2IDQyLjk4OCAzOC44NzYgNDEuMzE2IDM3Ljc0MiA0MS4zMTYgMzYuNzcxIDQxLjMxNiAzNy4wNjUgNDQuNjA3IDQxLjM2MSA0NS43OTkgNDEuMzcgNDUuNzk2IDQxLjM3IDQ1Ljc5NiA0NS42NjIgNDQuNjA3IDQ1LjY5MyA0NC4yNTMgNDYuMTg2IDM4LjczNSA0Ni4yMzcgMzguMTcyIDQ1LjY3MiAzOC4xNzIgNDEuMzc3IDM4LjE3MiA0MS4zNjMgMzguMTcyIDM4LjYwMyAzOC4xNzIgMzguNDExIDM2LjAyNSA0MS4zNyAzNi4wMjUgNDEuMzc3IDM2LjAyNSA0Ni40MjggMzYuMDI1IDQ2LjQzNSAzNi4wMjUgNDYuNDc3IDM1LjU1NCA0Ni41NzMgMzQuNDkxIDQ2LjYyMyAzMy45MjkgNDEuMzc3IDMzLjkyOSA0MS4zNyAzMy45MjkgMzYuMTIgMzMuOTI5IDM2LjE3IDM0LjQ5MSIvPjxwYXRoIGNsYXNzPSJjbHMtMiIgZD0iTTMwLjc0LDI3LjksMzIuNjc0LDQ5LjU5LDQxLjM1Nyw1Mmw4LjcwNi0yLjQxM0w1MiwyNy45Wk00Ny42ODYsNDcuMzU4LDQxLjM3LDQ5LjEwOWwtNi4zMTYtMS43NTFMMzMuNTY3LDMwLjcxNmgxNS42WiIvPjwvc3ZnPg==;labelBackgroundColor=default;" vertex="1" parent="1">
          <mxGeometry x="223" y="226" width="48" height="48" as="geometry" />
        </mxCell>
        <mxCell id="Cw4v4y6tv-VzNez0efr1-135" value="Approuter" style="shape=image;verticalLabelPosition=bottom;verticalAlign=top;imageAspect=0;aspect=fixed;image=data:image/svg+xml,PHN2ZyB4bWxucz0iaHR0cDovL3d3dy53My5vcmcvMjAwMC9zdmciIGlkPSJjbG91ZC1mb3VuZHJ5LXJ1bnRpbWUiIHZpZXdCb3g9IjQuMDAwMDAxOTA3MzQ4NjMzIDMuOTk5OTk5MDQ2MzI1NjgzNiA0OCA0Ny45OTk5OTYxODUzMDI3MzQiIHdpZHRoPSI0OCIgaGVpZ2h0PSI0Ny45OTk5OTYxODUzMDI3MzQiPjxkZWZzPjxzdHlsZT4uY2xzLTF7ZmlsbDojMDc0ZDkyO30uY2xzLTJ7ZmlsbDojMDUzYjcwO30uY2xzLTN7ZmlsbDojMGE2ZWQxO308L3N0eWxlPjwvZGVmcz48dGl0bGU+Y2xvdWQtZm91bmRyeS1ydW50aW1lPC90aXRsZT48cGF0aCBjbGFzcz0iY2xzLTEiIGQ9Ik0yOCw2QTIyLDIyLDAsMSwxLDYsMjgsMjIuMDI1LDIyLjAyNSwwLDAsMSwyOCw2bTAtMkEyNCwyNCwwLDEsMCw1MiwyOCwyNCwyNCwwLDAsMCwyOCw0WiIvPjxwYXRoIGNsYXNzPSJjbHMtMiIgZD0iTTE3LjI1LDI4LjE0OGEuODc1Ljg3NSwwLDAsMC0uODc1LS44NzVoLTMuNWEuODc1Ljg3NSwwLDEsMCwwLDEuNzVoMy41QS44NzUuODc1LDAsMCwwLDE3LjI1LDI4LjE0OFoiLz48cGF0aCBjbGFzcz0iY2xzLTIiIGQ9Ik0xNC42MjUsMjMuNzczaDMuNWEuODc1Ljg3NSwwLDAsMCwwLTEuNzVoLTMuNWEuODc1Ljg3NSwwLDEsMCwwLDEuNzVaIi8+PHBhdGggY2xhc3M9ImNscy0yIiBkPSJNMTguMTI1LDMyLjUyM2gtMS43OGEuODc1Ljg3NSwwLDEsMCwwLDEuNzVoMS43OGEuODc1Ljg3NSwwLDAsMCwwLTEuNzVaIi8+PHBhdGggY2xhc3M9ImNscy0zIiBkPSJNMzguNzg3LDI2LjM3NWMtLjAzNCwwLS4wNjcsMC0uMSwwSDM3LjU0OWwtLjQ5Mi0xLjE4OC44MTktLjgyMWExLjM2NCwxLjM2NCwwLDAsMCwuMzctLjk0MywxLjIyNiwxLjIyNiwwLDAsMC0uMzctLjlsLTEuOS0xLjg4NmExLjIyNiwxLjIyNiwwLDAsMC0uOS0uMzcsMS4yNjgsMS4yNjgsMCwwLDAtLjk0My4zN2wtLjgyMS44Mi0xLjE5LS40OTNWMTkuODEzQTEuMjYyLDEuMjYyLDAsMCwwLDMwLjkwNywxOC41YS44MzQuODM0LDAsMCwwLS4xLDBIMjguMTgyYTEuMjYzLDEuMjYzLDAsMCwwLTEuMzEzLDEuMjEyYzAsLjAzMywwLC4wNjcsMCwuMXYxLjE0OGwtMS4xOS40OTMtLjgxOS0uODJhMS4yNzcsMS4yNzcsMCwwLDAtLjk0My0uMzcsMS4yMjYsMS4yMjYsMCwwLDAtLjkuMzdsLTEuODc5LDEuODkxYTEuMjI2LDEuMjI2LDAsMCwwLS4zNy45LDEuMzY3LDEuMzY3LDAsMCwwLC4zNy45NDRsLjgyLjgyLS40OTMsMS4xODNIMjAuMzE0QTEuMjY0LDEuMjY0LDAsMCwwLDE5LDI3LjU4NmEuODY4Ljg2OCwwLDAsMCwwLC4xdjIuNjI1YTEuMywxLjMsMCwwLDAsLjM2OS45MjQsMS4yNDIsMS4yNDIsMCwwLDAsLjk0My4zODhIMjEuNDZsLjQ5NCwxLjE5LS44MjEuODIxYTEuMzM5LDEuMzM5LDAsMCwwLDAsMS44NDZsMS44OTIsMS44ODZhMS4yMjMsMS4yMjMsMCwwLDAsLjkuMzcsMS4yNzksMS4yNzksMCwwLDAsLjk0My0uMzdsLjgxOS0uODYxLDEuMTkuNTI1djEuMTVhMS4yOTEsMS4yOTEsMCwwLDAsLjM2OS45MjIsMS4yNDIsMS4yNDIsMCwwLDAsLjk0LjRoMi42MjVhMS4yNDQsMS4yNDQsMCwwLDAsLjk0My0uMzg5LDEuMywxLjMsMCwwLDAsLjM2OS0uOTIydi0xLjE1bDEuMTktLjUyNS44MjEuODYxYTEuMjY4LDEuMjY4LDAsMCwwLC45NDMuMzcsMS4yMjYsMS4yMjYsMCwwLDAsLjktLjM3bDEuODg3LTEuOWExLjMzOSwxLjMzOSwwLDAsMCwwLTEuODQ2bC0uODE5LS44MjEuNS0xLjE4M0gzOC43YTEuMjQ0LDEuMjQ0LDAsMCwwLC45NDMtLjM4OEExLjI5MywxLjI5MywwLDAsMCw0MCwzMC4zMTNWMjcuNjg4QTEuMjYzLDEuMjYzLDAsMCwwLDM4Ljc4NywyNi4zNzVabS0uNTM4LDMuNUgzNi4zMjRMMzQuOTcsMzMuMjE0bDEuMzQ0LDEuMzQ0LTEuMjUsMS4yNDktMS40MjQtMS41LTMuMjY2LDEuNTE0VjM3Ljc1aC0xLjc1VjM1LjgyNWwtMy4yNTgtMS41MTktMS40MzEsMS41LTEuMjUtMS4yNTEsMS4zNDQtMS4zNDQtMS4yLTMuMzM5SDIwLjc1di0xLjc1aDIuMDgybDEuMi0zLjMzOS0xLjM0Mi0xLjM0NCwxLjI1Ny0xLjI1NiwxLjM0NywxLjM0NiwzLjMzNS0xLjJWMjAuMjVoMS43NXYyLjA3NGwzLjM0MSwxLjIsMS4zNDItMS4zNDIsMS4yNTcsMS4yNTZMMzQuOTg1LDI0LjgybDEuMzM5LDMuMzA1aDEuOTI1WiIvPjxwYXRoIGNsYXNzPSJjbHMtMyIgZD0iTTMzLjUxLDI4LjZsLTUuODY5LTMuMDI1YS42NTguNjU4LDAsMCwwLS4yOTItLjA3NC41MjcuNTI3LDAsMCwwLS4zODQuMTY1LjU3MS41NzEsMCwwLDAtLjE2NC40MTh2NS44NzFhLjUxNS41MTUsMCwwLDAsLjE2NC40LjU3Mi41NzIsMCwwLDAsLjM4NC4xNDUuNjQ0LjY0NCwwLDAsMCwuMjkyLS4wNzNsNS44NjktMi44NDRhLjU2Mi41NjIsMCwwLDAsMC0uOTg0WiIvPjwvc3ZnPg==;labelBackgroundColor=default;" vertex="1" parent="1">
          <mxGeometry x="223" y="323" width="48" height="48" as="geometry" />
        </mxCell>
        <mxCell id="Cw4v4y6tv-VzNez0efr1-126" value="API Management" style="shape=image;verticalLabelPosition=bottom;verticalAlign=top;imageAspect=0;aspect=fixed;image=data:image/svg+xml,PHN2ZyB4bWxucz0iaHR0cDovL3d3dy53My5vcmcvMjAwMC9zdmciIGlkPSJhcGktbWFuYWdlbWVudCIgdmlld0JveD0iMy45OTk4MTk5OTM5NzI3NzgzIDMuOTk3MjcwNTg0MTA2NDQ1MyA0OC4wMDA2NTIzMTMyMzI0MiA0OC4wMDA3NzgxOTgyNDIxOSIgd2lkdGg9IjQ4LjAwMDY1MjMxMzIzMjQyIiBoZWlnaHQ9IjQ4LjAwMDc3ODE5ODI0MjE5Ij48ZGVmcz48c3R5bGU+LmNscy0xe2ZpbGw6IzA1M2I3MDt9LmNscy0ye2ZpbGw6IzBhNmVkMTt9PC9zdHlsZT48L2RlZnM+PHRpdGxlPmFwaS1tYW5hZ2VtZW50PC90aXRsZT48cGF0aCBjbGFzcz0iY2xzLTEiIGQ9Ik0zMS44NzgsMzEuMzY4YTE0LjMxNywxNC4zMTcsMCwwLDEtMi42MTgtMS41TDIzLjQ1MSwzNy41NWE3LjY1NSw3LjY1NSwwLDAsMC0yLjkwNS0uNTYyLDcuNSw3LjUsMCwxLDAsNy41LDcuNSw3LjA2LDcuMDYsMCwwLDAtMi4xNTYtNS4yNDdaTTIwLjU0Niw0OC45ODRhNC41LDQuNSwwLDEsMSw0LjUtNC41QTQuNDQxLDQuNDQxLDAsMCwxLDIwLjU0Niw0OC45ODRaIi8+PHBhdGggY2xhc3M9ImNscy0xIiBkPSJNMTksMjYuNjhjMC0uMjgyLDAtLjU2My0uMDk0LS42NTdsNi0xLjIxOC0uMDM0LS4wODdjLS40LS44LS42ODQtMi4wNDQtMS0yLjg1bC0uMDg5LjAzMi01LjcxNywxLjIxOGE3LjQsNy40LDAsMCwwLTYuNTYtNC4wM0E3LjU0LDcuNTQsMCwwLDAsNCwyNi42OGE3LjQzOSw3LjQzOSwwLDAsMCw3LjUsNy40QTcuNDQsNy40NCwwLDAsMCwxOSwyNi42OFptLTcuNSw0LjRBNC4zNjMsNC4zNjMsMCwwLDEsNywyNi42OGE0LjUsNC41LDAsMSwxLDksMEE0LjM2NCw0LjM2NCwwLDAsMSwxMS41LDMxLjA4NFoiLz48cGF0aCBjbGFzcz0iY2xzLTEiIGQ9Ik00NC45NTQsMzYuOTg4aC0uOTM3TDQyLjYxMSwzMS43NGExNC4zNjgsMTQuMzY4LDAsMCwxLTIuOTE5Ljc1NWwxLjQyLDUuMzM3YTcuNDc0LDcuNDc0LDAsMCwwLDIuOTA1LDE0LjE1MSw3LjUxMiw3LjUxMiwwLDEsMCwuOTM3LTE0Ljk5NVptNC4wMyw3Ljc3OWE0LjU2OCw0LjU2OCwwLDAsMS00Ljc4LDQuMjE3LDQuNTA3LDQuNTA3LDAsMSwxLDQuNzgtNC4yMTdaIi8+PHBhdGggY2xhc3M9ImNscy0yIiBkPSJNMzEuODM0LDMxLjM2NWExNC4xNjgsMTQuMTY4LDAsMCwwLDUuODEsMS4zMTIsMTQuMTM4LDE0LjEzOCwwLDAsMCwyLjA2Mi0uMTg3djBhMTQuMzIyLDE0LjMyMiwwLDEsMC0xNi40LTE0LjE1MywxNi4xODUsMTYuMTg1LDAsMCwwLC40NjksMy41NjFsLjEwOC40NDRhMTIuOTQ0LDEyLjk0NCwwLDAsMCwuOTgzLDIuMzc0bC4wMzQuMDg3YTE0LjEzMiwxNC4xMzIsMCwwLDAsNC4zMTEsNS4wNjFoMEExNC4zNjMsMTQuMzYzLDAsMCwwLDMxLjgzNCwzMS4zNjVabTMtNi44NDFoNS43MTZhMTEuNjY1LDExLjY2NSwwLDAsMS0yLjkwNSw0LjRBMTEuMTQ4LDExLjE0OCwwLDAsMSwzNC44MzMsMjQuNTI0Wm0tLjc1LTIuOTA1YTEyLjU5MSwxMi41OTEsMCwwLDEtLjM3NS0zLjI4LDE0LjU4OCwxNC41ODgsMCwwLDEsLjI4MS0yLjkwNmg3LjRjLjA5NCwxLjAzMS4xODcsMS44NzUuMTg3LDIuOTA2YTE3Ljc4MywxNy43ODMsMCwwLDEtLjI4MSwzLjI4Wm01LjUyOSw3Ljk2NWExNC43MjIsMTQuNzIyLDAsMCwwLDIuODEyLTUuMDZINDcuM0ExMS45LDExLjksMCwwLDEsMzkuNjEyLDI5LjU4NFpNNDguNywxNS40MzNhOS4xMjEsOS4xMjEsMCwwLDEsLjM3NCwyLjkwNiwxMy44NTcsMTMuODU3LDAsMCwxLS40NjgsMy4yOEg0My4wOGExNy44NywxNy44NywwLDAsMCwuMjgxLTMuMjhjMC0xLjAzMS0uMDk0LTEuODc1LS4xODctMi45MDZabS0xLjIxOS0yLjgxMUg0Mi41MTdhMTIuNjA1LDEyLjYwNSwwLDAsMC0zLTUuNTNBMTEuNjgxLDExLjY4MSwwLDAsMSw0Ny40ODQsMTIuNjIyWm0tNi44NDEsMGgtNS45YTEyLjQ1NSwxMi40NTUsMCwwLDEsMi45MDUtNC45NjdBMTEuNDA3LDExLjQwNywwLDAsMSw0MC42NDMsMTIuNjIyWk0zNS43Nyw3LjA5MmExNi4xMSwxNi4xMSwwLDAsMC0zLDUuNTNIMjcuOEExMS44ODksMTEuODg5LDAsMCwxLDM1Ljc3LDcuMDkyWm0tOSwxNC41MjdhOS4yNyw5LjI3LDAsMCwxLS41NjItMy4yOCwxMC4zMTksMTAuMzE5LDAsMCwxLC4zNzQtMi45MDZoNS42MjRhMTQuNTE0LDE0LjUxNCwwLDAsMC0uMjgyLDIuOTA2LDE3Ljc3OSwxNy43NzksMCwwLDAsLjI4MiwzLjI4Wm0xLjMxMiwyLjkwNWg0Ljc4YTE2LjQ1MiwxNi40NTIsMCwwLDAsMi44MTEsNS4wNkExMS43LDExLjcsMCwwLDEsMjguMDg1LDI0LjUyNFoiLz48L3N2Zz4=" vertex="1" parent="1">
          <mxGeometry x="874.5" y="342" width="48" height="48" as="geometry" />
        </mxCell>
        <mxCell id="Cw4v4y6tv-VzNez0efr1-138" value="" style="rounded=0;whiteSpace=wrap;html=1;strokeColor=none;opacity=66;" vertex="1" parent="1">
          <mxGeometry x="623" y="613.41" width="153" height="79.42" as="geometry" />
        </mxCell>
        <mxCell id="Cw4v4y6tv-VzNez0efr1-139" value="" style="rounded=0;whiteSpace=wrap;html=1;strokeColor=none;opacity=66;" vertex="1" parent="1">
          <mxGeometry x="850" y="399" width="99" height="20" as="geometry" />
        </mxCell>
        <mxCell id="Cw4v4y6tv-VzNez0efr1-143" style="edgeStyle=orthogonalEdgeStyle;rounded=0;orthogonalLoop=1;jettySize=auto;html=1;exitX=1;exitY=0.5;exitDx=0;exitDy=0;entryX=0;entryY=0.5;entryDx=0;entryDy=0;" edge="1" parent="1" source="Cw4v4y6tv-VzNez0efr1-11" target="Cw4v4y6tv-VzNez0efr1-37">
          <mxGeometry relative="1" as="geometry" />
        </mxCell>
        <mxCell id="Cw4v4y6tv-VzNez0efr1-144" style="edgeStyle=orthogonalEdgeStyle;rounded=0;orthogonalLoop=1;jettySize=auto;html=1;exitX=1;exitY=0.5;exitDx=0;exitDy=0;entryX=0;entryY=0.5;entryDx=0;entryDy=0;" edge="1" parent="1" source="Cw4v4y6tv-VzNez0efr1-11" target="Cw4v4y6tv-VzNez0efr1-39">
          <mxGeometry relative="1" as="geometry" />
        </mxCell>
        <mxCell id="Cw4v4y6tv-VzNez0efr1-160" value="" style="group" vertex="1" connectable="0" parent="1">
          <mxGeometry x="329" y="210" width="481" height="80" as="geometry" />
        </mxCell>
        <mxCell id="Cw4v4y6tv-VzNez0efr1-153" value="" style="rounded=0;whiteSpace=wrap;html=1;" vertex="1" parent="Cw4v4y6tv-VzNez0efr1-160">
          <mxGeometry width="170" height="80" as="geometry" />
        </mxCell>
        <mxCell id="Cw4v4y6tv-VzNez0efr1-158" value="" style="group" vertex="1" connectable="0" parent="Cw4v4y6tv-VzNez0efr1-160">
          <mxGeometry x="6" y="6" width="93.44999999999999" height="30" as="geometry" />
        </mxCell>
        <mxCell id="Cw4v4y6tv-VzNez0efr1-152" value="" style="shape=image;verticalLabelPosition=bottom;verticalAlign=top;imageAspect=0;aspect=fixed;image=https://digitalmarketplace-sapcpprd.s3.eu-central-1.amazonaws.com/nNCFqC8iTClDnsYPZYJGCLXKLux6AR4_0d0PN3_EsuNqePgjRhFTaiFQjFNq9Jjl.svg" vertex="1" parent="Cw4v4y6tv-VzNez0efr1-158">
          <mxGeometry width="30" height="30" as="geometry" />
        </mxCell>
        <mxCell id="Cw4v4y6tv-VzNez0efr1-156" value="SAPUI5" style="text;html=1;align=center;verticalAlign=middle;resizable=0;points=[];autosize=1;strokeColor=none;fillColor=none;" vertex="1" parent="Cw4v4y6tv-VzNez0efr1-158">
          <mxGeometry x="23.44999999999999" width="70" height="30" as="geometry" />
        </mxCell>
        <mxCell id="Cw4v4y6tv-VzNez0efr1-159" value="" style="group" vertex="1" connectable="0" parent="Cw4v4y6tv-VzNez0efr1-160">
          <mxGeometry x="5.78000000000003" y="43" width="198.66999999999996" height="35" as="geometry" />
        </mxCell>
        <mxCell id="Cw4v4y6tv-VzNez0efr1-154" value="" style="shape=image;verticalLabelPosition=bottom;labelBackgroundColor=default;verticalAlign=top;aspect=fixed;imageAspect=0;image=https://vitejs.dev/logo.svg;" vertex="1" parent="Cw4v4y6tv-VzNez0efr1-159">
          <mxGeometry width="30.45" height="30" as="geometry" />
        </mxCell>
        <mxCell id="Cw4v4y6tv-VzNez0efr1-155" value="UI5 Web Components" style="text;html=1;align=left;verticalAlign=middle;resizable=0;points=[];autosize=1;strokeColor=none;fillColor=none;" vertex="1" parent="Cw4v4y6tv-VzNez0efr1-159">
          <mxGeometry x="36.66999999999996" width="140" height="30" as="geometry" />
        </mxCell>
        <mxCell id="Cw4v4y6tv-VzNez0efr1-187" style="edgeStyle=orthogonalEdgeStyle;rounded=0;orthogonalLoop=1;jettySize=auto;html=1;exitX=0.5;exitY=1;exitDx=0;exitDy=0;entryX=0.5;entryY=0;entryDx=0;entryDy=0;" edge="1" parent="1" target="Cw4v4y6tv-VzNez0efr1-186">
          <mxGeometry relative="1" as="geometry">
            <mxPoint x="585.5" y="440" as="sourcePoint" />
          </mxGeometry>
        </mxCell>
        <mxCell id="Cw4v4y6tv-VzNez0efr1-162" value="" style="rounded=0;whiteSpace=wrap;html=1;fillColor=none;" vertex="1" parent="1">
          <mxGeometry x="560" y="230" width="197" height="210" as="geometry" />
        </mxCell>
        <mxCell id="Cw4v4y6tv-VzNez0efr1-163" value="" style="rounded=0;whiteSpace=wrap;html=1;fillColor=none;" vertex="1" parent="1">
          <mxGeometry x="575" y="332" width="167" height="99" as="geometry" />
        </mxCell>
        <mxCell id="Cw4v4y6tv-VzNez0efr1-164" value="" style="rounded=0;whiteSpace=wrap;html=1;fillColor=none;" vertex="1" parent="1">
          <mxGeometry x="575" y="275" width="167" height="47" as="geometry" />
        </mxCell>
        <mxCell id="Cw4v4y6tv-VzNez0efr1-165" value="&lt;meta charset=&quot;utf-8&quot;&gt;&lt;span style=&quot;color: rgb(0, 0, 0); font-family: Helvetica; font-size: 12px; font-style: normal; font-variant-ligatures: normal; font-variant-caps: normal; font-weight: 400; letter-spacing: normal; orphans: 2; text-align: center; text-indent: 0px; text-transform: none; widows: 2; word-spacing: 0px; -webkit-text-stroke-width: 0px; background-color: rgb(251, 251, 251); text-decoration-thickness: initial; text-decoration-style: initial; text-decoration-color: initial; float: none; display: inline !important;&quot;&gt;SaaS API Service&lt;/span&gt;" style="text;whiteSpace=wrap;html=1;" vertex="1" parent="1">
          <mxGeometry x="578" y="273" width="100" height="20" as="geometry" />
        </mxCell>
        <mxCell id="Cw4v4y6tv-VzNez0efr1-166" value="&lt;span style=&quot;color: rgb(0, 0, 0); font-family: Helvetica; font-size: 12px; font-style: normal; font-variant-ligatures: normal; font-variant-caps: normal; font-weight: 400; letter-spacing: normal; orphans: 2; text-align: center; text-indent: 0px; text-transform: none; widows: 2; word-spacing: 0px; -webkit-text-stroke-width: 0px; background-color: rgb(251, 251, 251); text-decoration-thickness: initial; text-decoration-style: initial; text-decoration-color: initial; float: none; display: inline !important;&quot;&gt;SaaS Application Service&lt;/span&gt;" style="text;whiteSpace=wrap;html=1;" vertex="1" parent="1">
          <mxGeometry x="577" y="328" width="156" height="18.21" as="geometry" />
        </mxCell>
        <mxCell id="Cw4v4y6tv-VzNez0efr1-16" value="Tenant onboarding" style="rounded=0;whiteSpace=wrap;html=1;fillColor=none;" vertex="1" parent="1">
          <mxGeometry x="584" y="406" width="147" height="20" as="geometry" />
        </mxCell>
        <mxCell id="Cw4v4y6tv-VzNez0efr1-17" value="LangChain" style="rounded=0;whiteSpace=wrap;html=1;fillColor=none;" vertex="1" parent="1">
          <mxGeometry x="584" y="380" width="147" height="20" as="geometry" />
        </mxCell>
        <mxCell id="Cw4v4y6tv-VzNez0efr1-18" value="Metering (?)" style="rounded=0;whiteSpace=wrap;html=1;fillColor=none;" vertex="1" parent="1">
          <mxGeometry x="584" y="353" width="147" height="20" as="geometry" />
        </mxCell>
        <mxCell id="Cw4v4y6tv-VzNez0efr1-169" value="&lt;span style=&quot;color: rgb(0, 0, 0); font-family: Helvetica; font-size: 12px; font-style: normal; font-variant-ligatures: normal; font-variant-caps: normal; letter-spacing: normal; orphans: 2; text-align: center; text-indent: 0px; text-transform: none; widows: 2; word-spacing: 0px; -webkit-text-stroke-width: 0px; background-color: rgb(251, 251, 251); text-decoration-thickness: initial; text-decoration-style: initial; text-decoration-color: initial; float: none; display: inline !important;&quot;&gt;&lt;b&gt;Backend Services&lt;/b&gt;&lt;/span&gt;" style="text;whiteSpace=wrap;html=1;" vertex="1" parent="1">
          <mxGeometry x="609" y="242.5" width="115" height="20" as="geometry" />
        </mxCell>
        <mxCell id="Cw4v4y6tv-VzNez0efr1-170" value="Data Management" style="rounded=0;whiteSpace=wrap;html=1;fillColor=none;" vertex="1" parent="1">
          <mxGeometry x="584" y="297" width="147" height="20" as="geometry" />
        </mxCell>
        <mxCell id="Cw4v4y6tv-VzNez0efr1-95" value="" style="shape=image;verticalLabelPosition=bottom;verticalAlign=top;imageAspect=0;aspect=fixed;image=data:image/svg+xml,PHN2ZyBpZD0iYmFja2VuZC1zZXJ2aWNlIiB4bWxucz0iaHR0cDovL3d3dy53My5vcmcvMjAwMC9zdmciIHZpZXdCb3g9IjAgMCA1NiA1NiI+PGRlZnM+PHN0eWxlPi5jbHMtMXtmaWxsOiM1YTdhOTQ7fS5jbHMtMntmaWxsOiMwMDkyZDE7fTwvc3R5bGU+PC9kZWZzPjx0aXRsZT5iYWNrZW5kPC90aXRsZT48cGF0aCBjbGFzcz0iY2xzLTEiIGQ9Ik0xMywyNy45ODZoLS41OWE1LjM4Nyw1LjM4NywwLDAsMS0xLjY3NS0xMC41MTVsMi4zMDgtLjc1OUwxMi43ODEsMTQuM2E4LjEsOC4xLDAsMCwxLDEuNS01LjI4NEE2LjUsNi41LDAsMCwxLDE5LjEwOSw3YTYuMDU0LDYuMDU0LDAsMCwxLDUuODY0LDQuMDMzbDEuMzA3LDMuMjlMMjkuMzEsMTIuNWEzLjkyMiwzLjkyMiwwLDAsMSwyLjA0My0uNTkxLDMuOTg4LDMuOTg4LDAsMCwxLDMuOTE0LDMuMjQ5bC4xNTkuODQ1aDNjLS4wNDctLjQzOS0uMTA5LS45LS4yMS0xLjRBNi45NDEsNi45NDEsMCwwLDAsMjcuNzYyLDkuOTI4LDkuNDUyLDkuNDUyLDAsMCwwLDE5LjA1NSw0QzguODYzLDQuMjQyLDkuOCwxNC42MjEsOS44LDE0LjYyMUE4LjM4Nyw4LjM4NywwLDAsMCwxMi40MSwzMC45ODZIMTNaIi8+PHBhdGggY2xhc3M9ImNscy0yIiBkPSJNNDYuNzUsMjYuNDgyYTUuMjI4LDUuMjI4LDAsMCwwLTQuNjIxLDIuODA5bC0yLjIxNC0uNDQ0Yy4wMi0uMjg1LjA4NS0uNTU3LjA4NS0uODQ3YTEyLDEyLDAsMSwwLTE4LjgsOS44NzNMMTkuMjYyLDQxLjZBNS4yNjEsNS4yNjEsMCwxLDAsMjEuOTE1LDQzbDEuOTU3LTMuNzc0YTExLjQ4MSwxMS40ODEsMCwwLDAsOS41NTItLjU3N2wzLjI4Miw0LjgwNmE1LjIsNS4yLDAsMCwwLTEuMTk0LDMuMyw1LjI1LDUuMjUsMCwxLDAsNS4yNS01LjI1LDUuMTgsNS4xOCwwLDAsMC0xLjU3Ny4yNjhsLTMuMjgtNC44YTExLjkzNSwxMS45MzUsMCwwLDAsMy40MjYtNS4xNzVsMi4yMi40NDVhNS4yMzcsNS4yMzcsMCwxLDAsNS4yLTUuNzUyWk0xOC4yNSw0OWEyLjI1LDIuMjUsMCwxLDEsMi4yNS0yLjI1QTIuMjUyLDIuMjUyLDAsMCwxLDE4LjI1LDQ5Wm0yNC43NjItMi4yNWEyLjI1LDIuMjUsMCwxLDEtMi4yNS0yLjI1QTIuMjUzLDIuMjUzLDAsMCwxLDQzLjAxMiw0Ni43NVpNMjgsMzdhOSw5LDAsMSwxLDktOUE5LjAxLDkuMDEsMCwwLDEsMjgsMzdabTE4Ljc1LTMuMDE4QTIuMjUsMi4yNSwwLDEsMSw0OSwzMS43MzIsMi4yNTIsMi4yNTIsMCwwLDEsNDYuNzUsMzMuOTgyWiIvPjxwYXRoIGNsYXNzPSJjbHMtMSIgZD0iTTMyLjE1NywyMy4yMTJhMi42MzcsMi42MzcsMCwwLDAtLjk1LS42NjJBOC4xNDYsOC4xNDYsMCwwLDAsMjgsMjJhOC4xNDYsOC4xNDYsMCwwLDAtMy4yMDcuNTUsMi42MzcsMi42MzcsMCwwLDAtLjk1LjY2MiwxLjM2OSwxLjM2OSwwLDAsMC0uMzYzLjkxNnY3LjcyYTEuMzI0LDEuMzI0LDAsMCwwLC4zNjMuOTE0LDIuNjA5LDIuNjA5LDAsMCwwLC45NDguNjYyQTcuNyw3LjcsMCwwLDAsMjgsMzRhOC4xNDYsOC4xNDYsMCwwLDAsMy4yMDctLjU1LDIuNjM3LDIuNjM3LDAsMCwwLC45NS0uNjYyLDEuNDI3LDEuNDI3LDAsMCwwLC4zNjMtLjkxNlYyNC4xMjhBMS4zNjksMS4zNjksMCwwLDAsMzIuMTU3LDIzLjIxMlptLTMuMTQsOS43NjFjLS4zMjUuMDMtLjY2MS4wNTItMS4wMTcuMDUyYTEwLjI4NiwxMC4yODYsMCwwLDEtMS4yMzktLjA3N3YtNi43NGExMi4wNzMsMTIuMDczLDAsMCwwLDEuMjM5LjA2Yy4zNTYsMCwuNjkzLS4wMTgsMS4wMTctLjA0NlptMi42MDYtMS4xYzAsLjI1NC0uMzMzLjUzMS0uODkzLjc0YTUuMTcyLDUuMTcyLDAsMCwxLS44MS4yMjZWMjYuMWE0Ljk1LDQuOTUsMCwwLDAsMS43LS42Wk0zMC43MywyNC45YTcuODQ3LDcuODQ3LDAsMCwxLTIuNzMuNDEzLDcuODI3LDcuODI3LDAsMCwxLTIuNzI4LS40MTNjLS41NTQtLjIzNy0uODcyLS41MTUtLjg3Mi0uNzY0di0uMDEyYzAtLjQ3MSwxLjI4My0xLjE1MywzLjYtMS4xNTMsMi4zMzMsMCwzLjYyMy42ODIsMy42MjMsMS4xNjZDMzEuNjIzLDI0LjM5MiwzMS4zLDI0LjY3LDMwLjczLDI0LjlaIi8+PC9zdmc+" vertex="1" parent="1">
          <mxGeometry x="566" y="233" width="39" height="39" as="geometry" />
        </mxCell>
        <mxCell id="Cw4v4y6tv-VzNez0efr1-175" value="Business&#xa;Application&#xa;Studio" style="shape=image;verticalLabelPosition=bottom;verticalAlign=top;imageAspect=0;aspect=fixed;image=https://digitalmarketplace-sapcpprd.s3.eu-central-1.amazonaws.com/_xfJ99LNIjUjeuRb-xZYQLTOz8QvYeeMxjNso2P9hiCcurcKnScO7Wh3R0EMy2lp.svg" vertex="1" parent="1">
          <mxGeometry x="300" y="601.41" width="56" height="56" as="geometry" />
        </mxCell>
        <mxCell id="Cw4v4y6tv-VzNez0efr1-140" value="" style="rounded=0;whiteSpace=wrap;html=1;strokeColor=none;opacity=66;" vertex="1" parent="1">
          <mxGeometry x="219" y="569.22" width="155" height="136.38" as="geometry" />
        </mxCell>
        <mxCell id="Cw4v4y6tv-VzNez0efr1-177" value="" style="shape=image;verticalLabelPosition=bottom;labelBackgroundColor=default;verticalAlign=top;aspect=fixed;imageAspect=0;image=data:image/png,iVBORw0KGgoAAAANSUhEUgAAAXsAAACFCAMAAACND6jkAAAAflBMVEX///8LdN4Act4AadwAcN0Aa9wAbt0AZ9wAbN2Xu+7b5/k6h+J0ouj8///y9/00g+HE1/Xi7vuewO9OkeRJiuK70vPv9f2vyfHg6/r4+/7N3vbq8vx5qOmzzfJonudYleWGsOvI2/aKsuuTuO0Xed8nfuBjm+YAXtqmxPDU4vetf/9HAAAQ80lEQVR4nO1daWOrKhCtgGL2NLvZ95f+/z/4xHWAAWyqadKb8+neahSPMMthwI+PH+LrOL5cBt1b/6cXeuObmF44I4R4LODdz99uzD+F+ZkSLwfj1/ZvN+ifwc3zE+aJ6Pgp+7uv327Uv4Bei4UJ4cRn492ABulr4JPlb7fsr6N/ClKyGR1MxR9W+yBnvzP87db9Zcz2vk508ToIHWx+s3V/GasuDTLzLhuYaJSbIXqe/1br/jIWW87MjvV2ztyv791+oXF/Gu1rwfx2gZ4xv2RhZ8ha0YNb95exHBfMWxKpac5+wI5v9uvBocNTexLQ9cx65rBDszP53n7mG1UwHaR9ngTB0S3dFCMk4OvVA1r3l7Eprfipmh352rk8wxtVUMg2IRv1Kv9qUfhlunsLPXehN2J+HrV/M2787BZ9f/wWer6NqJBt6OWObHW1LoWeQ/2t+8voH3PZhqeyzT2XCHP2B2+hpzJm+6LTdn7QaaNT8JOh8y8CGuuf6sIjr3AZb6HHCSjb1BGk5EJP/BK+ESr9i2g3EJxv3kJPBQDZptakdDrIpYbwLfSgaBeyjV+7GHOY5Nfmx5ov/RfQytmpItt8H6XQc34rDQr2vGmbnE8BEPomX8KcP2DSKYuhiPc2+gB94QxJ0Ph03+pKhdnpNn2fV8I+iKk/P0JwHwny+buKsEQYd3v+GDO8js1O8A52CizjzsgeZAj6YTzEBo+51yugFZsc/1FS7y4eY/TtbXMIOvij6BAvmr41/RyMPNAMCAMXnB51t2fHQpj79aPuFgmDP37U3Z4d85iN8HGzGwNh8B92tydHNw77uDm4H92mh0WNGs8+vh19FzCkuMQd8Ww+/F8Q+jQ8b2815V5TPzb4Vaaxdp0SFyT7WAw6EIMXDJ5mPDb3V/Nxni2rCvngVu3xPpe2PG0l7retcJmOWE2XgesDJfLAcfSM58dQ9EOLlJNxL1Sw0FWR+TGbdweU85btnORaFRrWKdfTYUZqwjwA/pLFEEcRcFtKmDh8xIDa9IDNhIZxwOoFI9sNhX+hFQyYnft1KFH/mmX/cf8hzDKPLXEf8+qZqhdGLJsXd3B/E2l0hbIfK/c3qVl0777cMyKO7snEclzhPu5je+y0KSs7op37tsgn0GvIsHH/JY9Gi7t6Zny58kyNey/saCFnfwxPs3P/EVTLoy3czwhsD7N1nWfGSFgAm6PSufeYpwQyByY5Pgf345i50B0yWbgfQO7J+QWjywRX4flsqRPCvUdkNayl+gQ79yfh3d01b2bur4F0t5ddZSEMwMV2Asa9RzgQIbpUOerg/iDMnDUMTWDkvgXvR143R/7kLiEN5R5GdeNQPebgvi/c+87ZNBP3B6lF/M5C6SfAximkMR6o3KYPnTro3kA/HNq5F+aaEGfTDNyvQmjsueNWzwwxf+qYu16c4JYtxVgnib/tX5h6hFHmSDKTmzrnh3Hue2fYFv9h2ncDuMRdMHCedcjLykqCz4m6MDur1DM+cVqBZLA55TSc+zG8YeC2XM8LYXoZ8gDDfWuzhPFDe8dhfwsnSVy38tQBQeXlEv3FAXkTq0qT8yj3ex++5071J30+HHzcM454EFJKdq1S6FleiscmPB3qi0ChPvBKpnuH09jzKf0P0SvEuRbZOgXG/Qb62WYD+9lqZRAOV6tV1Rv343NXhgj+ZBDSRokDJSSgwbo4PMrMPqMpw0vVDfDC+kabHc9WDnGEe5FUcFe1M8J9W5YS1MB+CIFE/Utw+ID9Jj9xcZpQAX7ezmWal+sLFweCnWOXvs/Nfuxxml3mOkKE2Pj5fIScURG8EMYvt+yM1UBMttJxytqGy9SzQmX7XNMyGMG4rySn6dz3JRPHtT6z5X4BjkwRUFoe3md/4+XfKE//dJjwYkAzPwSZyPxMWXqEiI0LjL1/ufZ4yAjYVC6IWVROEiUKmBoygoEjCUlulvbcP0/zf8qdnu4ykj+3kmPGuE9EJFd1ms69JNlzPTKGChth2uEDyMmKSVJGlJ/MZM8m+lp2amx1pSOBKq2k6I3iN+RpIP5Z6ixtEwcjJWgPc8Y32duLxr585WK+ZK+ERBj3TvFUQOO+C5M4iiXGF/gTLdDtlg0rb65yP/Q13oJx9mBqYEFCJDpvBVquWXAEu8vNJKSp3McUjqF9HsriWfxSD/kB9Zco90JOo47Fbyr3kmQfooE9bLY+Lwlo9jfIHwX3LY1gcXcx7He+foBoAcPBC5ELFFwArrdCSMN8ns69x8r0t39VWki8rAOsdQUC5d7k4yEU7peSSo1X+MyAVSGBcuNheRBMFsncq6pgfqmYejS7V40G8vzShYBqKf6LCmkI9/GQyXrSRku0LuklVxfkZyj3ptjWzP0M3tMo/+/AWaoz35bHgIIFuT9PDdT50zVuSEgA/e1sYDI3xY2LWZ6kZADNcTDuY7YuqYe6ysMvmOSEYsMN5b7P8ZzOzL0k2RsVKNC31eKLHkhGwJBj8LqIi0xAjEd82BJdX9HZyD3E1Jjb49zHziUNI9dQxQ0zDkeYqTRwn3rF6tx7A/mxjBPM5jtPyw4DxzqzmGfw4KYDkldZyGI6YUEMueHBPjtXaFr40jMD90VkdywHp5/d3WTqcO4raHgdCyuBSUPbg4bLRudakgCtHcI9C8IQfSVEPyKb7FtJPvPpZXsctVpdT+Iy985Cy9XDYCv3XhZLnnKmacbCFgkD0h+g3Lu1ayv3nqkUagFDfGjUIhjcg5RUI5me1/PpfK3KJWLQs/VtOt/Lv5BLS/MXzPhuWtzkCIdD1uEibpzDMHOflylkEV+eH47NLwvl3j1nY+fe6G2hX4BrLDbA5MBnVrgvFKmZekeWF5D1JRVbkUaSY4zLNWRrYHeyDmeZu7Nw79HUOyeSQp5RdSzvCjfNninEKmDl3vMNUdIchBpwYO2Ap4UZjcQ9KRUp6ULiR7viRU7hEKey4RSKE78qYfsKdPysJsQyZ23j3vPTAGJICU8ddWRz8AbuRTTIrXKUnXsS4lpcBIgBHTyCtgieD7kn0ENE8tQkeNURJEfhPo44PH1VzaU8P4srRXJpYMbKfZ7ZfGUdqK9NoFTg3lmb4uDeWL8LlANQgAF6cRFqJIDcBxKPMLgJpZZK0oUaMOyRDgUeJesPlrU+du69oAMI1SdQqnDvrMlyce9xfNXWEgzwMoAelxeTZys1La0A9By+ROjExr2Gz68D7PdJMmSrzXNwH2eyhfVbOCJkA/di4NrX/iDcK8EH/jvgCosb9IGeIE923cP9uBr3/eVtPT5zTqF/SFU8m4ju4t5jYdYabQJFhYH7pPNY1/7o3PO5NMQMKnQLtD0Xq4DJUZLJhrifbcQkS6D3y5T7rWWtj7Pf56UIczyZhYQZuHfVnuvcx/5uLmWO+HPDqCLM4kJgJXx5xqMJ7qNbVgyPIOX+7JknTe3cE77NHkCdQEFg4t615kLjPin0lv5omAIA1GRnzMpmqvpV/dx/dnloDj6SFlnX3ti4J3SQBabqBAoKE/dC77WtNVK5D5O2LqSXTdHMGMbfaepzKx9HDarr5r7fVVVehb1J1kJjvzNzz8rdLtvW2LJ4epPsdfbs1Wky9yxzm1CwidlCp0zB9EX6hMDkqCO9Zu71uSNxYZhDCO6tay1x7gkL+a6I7E5OU5/AyH2y9scSoUncs0t2mZ78RlAFfA8mB0VUA0yOFtbWy/1JtsGEBD7nl+tZsYIdo5D2oXNPSMw7ZddNGVoOKtgbK/euNdVyvy8efiq5W71Y4UMuJRHRBHgaLbiolXuZekaDcSupVenI3PeoLb4eBfEbozxH4F3G+zkYJNG6Wqe3cb9wyGnS3AmgeCy5W1QTArQJvbj8r/7EdXIvTXsxej309EsJ7u15Zeu/8eiwiArIR6NT4Ir/K3Dv2kPDVAP+KXUuVFO7leF8fIcVmGzQ8pkauY+g+6O7FXopwf3IupfK0rKW43Mf6uL2PdwLadE3y2nGtQ9Hyd1ic/0gjfXoChZ6aafWyD0MA+QSFoV74eksD27C6tbh1abZ3Ny37Gt/zGt+zvD66LQvmBcPbuWFEBNXI/cgvFJupHAvwi67fq5hNdwPuK385Jvci2IFSym4mfuhLO8iaigoQSNn02US1Mc9nKdXdsZSuO9oqpKG9jTHZnTsdjzqf6/Hu7gXLucu7qVSEA/V1MBR8NyId6mPe2AKVWY7er+3lmHfvLJKNAwCWNlZE/dCVbAEmbb1tZKAJwvyKU5YMIClkvVxDzqEKnaAoScOrR2ZTdet1FSDmfskuzOrabZ15SN5NwW91mKFNR+bJ6uP+47pSjNY4CK4F5mNZe3HrS7qzdz3xfJSy04O1v0U4NQRajwn+jBF1aP6uIdNCsEIG0kuUnCfTEeadz6potRUg5F7sXLKtvLHyv1S1tR0r7HR0240pK6Pe+lt03Q79Wh5JHJ0kpijtZg48g1W5yBXWP0EJu6TlVO21Yb2PVy2sHcQfYuAHhKQYXepj3upRV5Az5MBoVRNhRLukyxML2JOMXcVdVaHgfsk/w73+O0T2LnvSw+FiOFrdeji01z1cX9T3TvBwpM01kqGraEgtXHuFyJSYdbdRBz7Rt1kTU3L0b5Uj4WXINbH/afRRUoacppUJZtyU1TTaZr7KK3fqlyfg4nd8mYiep54kXudYZKrxrx2jHRzgeAKXAHJLN9WjBLU3zbNfbJCGdV/S7i4lxcdhlofUnRwH88kauS+jXf8cAyL4or6AHF51N82zH3qZx17nLm4T6IFcIoq/80koySvUihRp4Z8QiIUwruy78kLOGepv9XZaZb7xM86P//g5D6S1y1o0rykPJii2VrnTvQ6eJaIJnAIFtmkyd82yn3qZ53r8Z3cf2xkd6tq81DcMibQ9c4Z3iSRlzC+TXo5rJUrhY3U32rR15wHdUFb0x8l6hY+yw1xyVZlC/yHTyxPwCmUa/vIg/jCFEx/SFeQjpzh/SXuO/CInKH016GoiBJzrAFl6+zF9MAPeDk+cX/7dWrVBc0HVvGzAos2AP6m+m0J6iwKVPFN+1RJFzDfv3rLouFR7Ca8W9++nNcy+tuGUMnP1oKeVqfzbJjZ8tv6Uc3P1gLgtCpsEfYrsOW3taOin60FILmiz7qrmiW/rRupnyVNfDJRA5i6Nhci/TrM+W3dqOpn70R0Xs8z57eACx+xma1nQeJv3Ssofoym/eyQspD67DwYMGkblSrbjv8WHuRvN0372bQQk6jq7aM+nHYfHuJvm/ezF1xJtHzN5RmQ+Fu/0Q8NNu9n0Qlyzwuf/fuJqb9tMhSbNOtnP0wqlGMJ9TMg9bfNfc0z9bNVPvBzN67oDH/43BZHoGF/m/hZfKet2oDVKxLX9lRPgdTfNvS5u0fks1/I1EVAXmOL9qQeqhl/m/hZ0nA+e+LKelYS8O6rfBOi25i/bd7Pxuh93bqXkFNRPhqIPYUvx+c39QWa0pMf4GdzRJ/L4eYWY7p8StnYiIb87SP87Ovjqwl/m6xHfu390h+CW/357UP87J9A/f72IX72b6BuPXkfPszPvjz6pFZ/+/az30Gt+W2yVerLfnDw8ajR32a68askl0+A+vxt6mdfQ1J5EtSlJ6/ffvbb6Kf57U9NxdvP3oNa8ttH1kH9JaT+dv+TS2T57NvPfhupv/1JKU1HGK7X/brsbyIp/afbexXwYbKR3dvP3oV+MgfE6GXb/T7GXlKR99KfOP1NtNNPxxB2B9K6sPBJK69fAAuv+q5oCJIVdm/ciWhPLbvLWnknsbF6RGHzH0Y07w7uof48Ppo3QvvX8T/bYvI+oXALjQAAAABJRU5ErkJggg==;" vertex="1" parent="1">
          <mxGeometry x="350" y="157" width="76.93" height="27" as="geometry" />
        </mxCell>
        <mxCell id="Cw4v4y6tv-VzNez0efr1-178" value="" style="shape=image;verticalLabelPosition=bottom;labelBackgroundColor=default;verticalAlign=top;aspect=fixed;imageAspect=0;image=data:image/png,iVBORw0KGgoAAAANSUhEUgAAAlgAAABSCAMAAAC/vFqhAAAA/1BMVEX///86OjovLy83NzcsLCwpKSkzMzM0NDQmJiY9PT36+vqlpaXw8PDd3d3Q0NDm5uZWVlafn5/Dw8OAgIC3t7esrKyUlJSMjIy4uLhERERTU1NKSkrs7Ox4eHgiIiJlZWUsV5UpWZTLy8sWe6uIiIhdXV11dXUJmsoOj74bGxsQiLhoaGgFpNMTgrF3d3cfaZwlXpUZc6UArN0nU5Xq9PccbZ/T3eZWgqkAVJBmga4NDQ2czuJZu908ueJ1xOHC3efW5+1Src+ZxNd4ttNInMGIt84oj7izzdtIk7hrosGryNhZj7Odu8+OqsMydKHI0uCGnLpEaJ0ARY9yjLENSpFfnapRAAAUlklEQVR4nO2dC5fbtpXHSeJBiiJFvd9DJbIkW5YfcSZ2s0m29e5227qN6yb29/8sBQiCAkAAIjQzcU/Mf8/pcUYkCAI/XLwuLj2v1T0ppvrcmfgPV5L2ttteun6ItNcs7eQh0v5syuazQ39FtBlNty1dOsW9wQnnUYQQivJgM0h114zHc6qx7keLkuGuH+VF0lEenrqppQrSYSn9NZn+Z5YvUePhNk0aVXWcWmVOI50ucohDUCgMUL4ZW5pNr9fLLLmo/Rxv7e07I3co+ekpSteXmrF6B7tNV27ZlvxgTSsmt9YaVzZdwSD0K4VB0J/Ukk8CBKnywYX8SkpHHYSBmDZcdo3VNTjSJyAU6stkciR4kgt+kH9m+ZKFgs5yZ+BTVAYDbNaxZ7gtPQWB8FbFm6HF1PS8eBUdp5ZcBOgol2r6w8qa7dkxWskPu8mRJIjBYr+bW+CKlTvK20i5bdVL0yOKQivq3SM6npSbbo5qGfk+gIGKVtJhVwUOYKWnI9akHQ0MNdAN2BULfXmMIUshkn+uPYElAjCKbkxkcGWh/m4mpL99fchDzdUggF39U+IlCGxgdUAg35mi4GDL9jQAfbkMR7heAADDfG9sXbHuHYpyizoT5dpx5OOTNhWmLPdBKD9oAGs5Kqt/JZfqFWBNoT7vvpo2132CVQjDg60LomDRizRNt9AP2myOgb7IiNBe+7grwPKhrZy1YAEy2BBErE9IDelqrk8jLl5dVYSImQFoo9infuhHQ3N+TuRn6THrJTJWCsilsnAGK1nCpmlz3TtYpOgia34JWHhQG59U0uQjHuWWB4a5rvivAcs/GoCg0oEF+mtRWTqf7jEklERLPe2hH0zYtFZQth3QesNIHlNlhNuOsV+dIB/fSJd3DCaFCd0ImXcFK1tY0452mnseACzyFgfLUIuABS0VWFe8D8TE2eBdepymO7wKLBCax8tasPb167JuBwE/xLpXZGDpfpgHBCNfprGL/GBkyE0ClTrJkFInShn5kdDRO4KVQTGpEAeQDJPFP6Gb+k0PApYfLM1kUbDGjV6IKV4K3SCOwHK/3/dXEAmNSDO7uQosUhvGfDcFi2i8IIV61FSaESxS1xtqoOQHLIGf10b1TCfsIxHddUecrsEI+svlIoxgVf94JdSgG1jJ6lzUGOHNtDufdHcrJIy6UL2o7wYWOE/nQqmFBBtjPl3B2ldcARTOemta+HGczk/R2ZChWnVdB5ZlvOwAlhe/iEiR1e2oBSwyjSU/yjlOoQ9WWtLnSMnpUqh7fBqXizbZcLRAJVdiOm5gnaoKCPHoPAROxvuzlayPBu8EFujPdlyHficSTAvUWEcmR7BG1bAR9eXuJZmGVXHWVimutFg+NHU+LmAVQyDNiM0GlrcmTw/kznAAfTjTXJqQvgkm8oW88UUjKY1kgkmtBHsp605gkekpr4CTMlKYVxUAsNoA7gSWXHXJdicYkdw0jnIDa86nOkAzJcg21a9q/q8BKxgTqxsZ8uYGFq0OANQRvBUsbxDU5qUr0hlqhn1kPirZ6LTiCi9rl8cjFCj5dAErqXoizaQ5rrqT2mjwbmCpzSmeVtYR+IYZjRNYSc5LbKEdV3d5c1IXoa4BC21TUhqRfl3GESw69A77yt/sYMWERV/+E+0M68PVobrEVXVWwUbXc07Uv7qANeW2Itfl/EwWVOrnfsHyvF4FuObHQk5g8UVIvDSsQs85WQoPV4E19CY5MTTaonAFi9Z2pFhtO1jF0pRi5Kawbihiwl8uFkd65K3Plh9BDmBVLdu0yLcq6xsrLfu+wRLmJ5E+SReweiU24oJO/B2RkMPyEsU8XAmWN4MkJV2zdwaLjJnUofcFsCakL1QHwQsCkQLbjlwmpcJbn6kSa3IAq+TDD02zsR7UV/e9g3V+koFxF7AO5eAQcnP03Y8/fUv133/8E79mVz4PSTPza8GihibQTTycwaIjaiRzcgGsIfQDdSpJmpZSpz3Sx0rPpaN+ndE2qzlYcZ+nbdxOmZVYK5tr9w+W1y3vMUyVM9AYrCyX8/zdT8++PevH8qol0LSpq8GKiY3QbR24gxVjMm2W/3IBLKQuOBDNAmUxhUAh1/KwLO/QtrUoqTlYfFqAjZN8b827DJn/BwCLmm9mQ7TjbQeLNeCZY//547NCFVk/sR5xW+InjTuuBstLA6BaGip3sLwpGWVJQ8MLYG11YMWhvLRARl1I5uGGm4zG3lXNweJGAlqM4YGPg6V3fQiw+E36fDuAVdrhcgfoj4+fSfr222eMrD3rMKWBx/VgedtIZ/mvAIs0d3kwdAGssXo9y460GJqqHWFhwooqVOegZjUH68SKVjM1PYtbTLk1PgRYia/rnLiag5XxvBVv9aPCVaGCrDnLZCjOS+4AljdApCTV8rgCrHgFQqkLuQAW6fWgZgtnFAjbN8vayhaftzn4wDQHi0/5DDN8lhqnQSrQhwCrGnP7uh+bg1UujrK3evvkMdOzxwJhP9GfYlZOJYBMdwGLViVWG8UVYNErpKZ+ASwyc480qyp0eQGV5T+oLz/wmbPBk02nxmAlZdq1yaqkPUtNHoc9CFhd/V1MzcEq1+bYdO9/Hksq8XpcTA5LkKHQf90JLG8V1vZVrwGLFq408LOCleZkvqP7YR75mC1sU1catVfiPZGOSYMag5WWOxuRdfhWLnfIpfEgYG1t+WkOVtnB5/TZlcFSVJisEmSxk78bWHQxTtnbuQYsUg5SEdjBusGazXT+C9vl7Yf1LR6+0hTY8yKqMVi9siJzK7SlAZBbxYOAlXLrrHP6oGBZLWulclE3pP/+3ydUdbCe0coesvcXR753A8vr5WqzuAYsUg6RWARWsIjlMTn2JWTQ1/GKre36pnS1hGnPi5ReU7C4hTharxr8ZmCtL4AFFiuDOiJyCyG///dE1BmsJ2+9qmEF9weWN6Z1KbbTa8DK8uZg0aGSaQOcjjaDHekIgWZ6xsEC9ryIagwWr/7/FLCSC2BxN9C6JL8eth7Gau/PT+qqwMqiWjndFSxvRmb54gT+GrDWzcHqBsCH5tMcJ+zDlPyf5hATBwvb8yLK2WLZu8LfDqxLXSE97qbX0Wixnj59qmHryUNZLM/bYMk56wG7wjjrdiB16DanRF2RAdYW+ISvYTY/wOs8xrIP3ne/2eDdmh8CVjjqGiQd3BXHWP//lOuJDBhdyRo+BFgJebwwmL4GLFIO0v4dAQvsb1RtVpAe08lNLoaFJoUf4kIDj3WmpFfzWWGj5YZNWU9Sw3gQsCa2GXDzwxTirPBPz58qYlz9WXiJ+5sVsoxC4B8rg3MNWKT0JJ9QevwLhGGIw9Kdu/gHPWeJ4dLg3c5FC0O7y9ys8iU1X8cqobUWZVxu4WEptZIBE1gcEeVo5AWwKi8qnXV2WMfC5w41/stzIhWup0//Ti/k61hCm70HsKhD3fnkzDVg7bBcrgVY4rnvopAgysGLC1jRYziGneC4BAtbLZ6k5ivvfLvIfITh7M4imwvu+gv0w7OpfspxYUvHunvlvvJeHFv766Pnlc5c/UV4njRZvw+wqH9qyHufa7Z0+kCuEdoVbnajs+hxwtlwaz/hW94b1H1qmErvjsbeWC5g8Q3u0JJFzgiUrtlyQ6rfECgTVleE7WDxtWCsrVmHvcLSmjL3m3cCWZyvR2+K5zEAJbcRUqkme1qoEVjegdTmC/bPK8DKsNKH0MG79OpTYhO1boV1mcHiFYuaO3w3BsvuT8DET9Yspb9yhxvNtrpXtHtWZ4optIPFvVW1k0IHsPjTmY2N//bokcLWo78W15V7VbKn2Sa09Q0xUt9YCxY9e1bu7VwBFhn6yRt49VnhDPmh3m2tlmMjWHyqVKyhNlJzsDLeY5mXX8dIC0OysHkipHyNRLE9VrCq3lU3h3Fym5lK9jL+26tHpZ4/Erjiu7CyC+9NaHN8W+cqRnqwEjJfY0f4rwCLFK28z6JZbjhAH2tPQKgyg8Xbnw9tfb8oB9fkcgJlHr7ztGqzUn6n6lldaMCtrFLkNrDS6siIPi8OYKWKB+m7iiyqV0U/WJWrUssEBMugg/SeihuiHiyvh8tJgTtY85rfnm4di/a2tqFxda8RrPNBGp3TjU4OYHF75AcG54kX3OFe3T/n7GBNZIeYH7kJlKG9BSw++TSg6ubzXrrw+biE4LnI1d/Z36bcz0xew6AO5GZHkhlWsTOA5Y1zdvTdGax4VTuAqgOLRhAwnpIVrzODlVSnK3PtGyd95c8ux784AiDQVueAn5KqFV5W/VLHfWY6omE5/lUFPTG5STv4vJ+HD+WRrLevqBhX79glk9KqqbtoSWRxT6MueMo6twksem4H72N3sOh9SmPVrrwny9BHl8mygFW1LTIU0pRsb4Gx4hvoANaE8wF0JzunFdP1FQB+DgNgdcVhXp23UUvDeGB1cA5Moifc8Vwh76i53937V6UevWJuyUP+ZrXoAZtQv45W3qUu0hrBKvbpds5gUU981R9Nv6VDD8zbIz8V91rAOvcSfn5Qqj+jMaAAlmxWBZYpQVH76hh9rkYGzE5VSC6NrdxW0GHZZnFbQDKgVpDuiH2cbGfofMQ+Mm3jO4FV2VPIGn/8mpP1vvjvdQQMRpUubxpHnKRgVejMYNFqy8cDN7DobLvmXWXYK8x8oAshotxrAcvbHqtyx8GNEFFweMNWYYFkszhY4c2wFkyWSoIkPacNl2LU13SGq2Ad2nhLmwpJNDo/Pj2do3HUmlMVFKSKCTI69DtIjDdkHJC6xW4YcOzLJvGOk/W2+E9+QgTgmn2kg3qs3z8b1E662MAi0xHgd/bABayURviobSqbvBt6R2CN3lfcawPr3BnSokdRfzeYTLqzfYTOUTsEWqqZXKiJJQuhsmvZPUcKBDDfTOfbXm87Hi2EGDD6M76VVSB5ylf0vu18uoqqSC4aH6B6GKNQDmMUmo91OEabqdBhKb55+Zqi9fofxY9DnnVdVL+e6bj8PNKcebSAVawig9pSpgWsMTGkeFn7s9FtZgt1kYDke61geS+kWI4AU1cRLMbhA8IsuAJLL3VouBNjUIYBLCP5imnr920mkXANhoj8Twy+e6w3+0uB13BtvHaWI1gxD1PIZn3xq9eFfi5+5MY20vZ5I0gAr5NFh2V1vyYbWGzu0xis9QukRDrj72L0x5ofL52GuACWQlZdUFgtcwRLCCWlVdgxbfhMI8ttup2CC2DBvWXbyjXwGg8oVy6UvHtJuXr5tkiq7P71XBHuAtLA1MkufVmNb7kVLHpupylY6Syna1+6oYDF0W+CyITe5vhyCSxverTUCjiK8yxXsOxpBwuzFZnlprvAUVcS1nyBXBfstJIrWF6yYFMCti72/mWhoo5Ld5nItKwQLwMyLHghtqc5jSOrC+NoB4uGzGsAVtIb7AOCVah7gt01mW4b+hZHzYtgecNFYKqSYCG7mrmCZUkbRDvbxgENrqp9BtC6TlnyFSJ1OU6RM1hefCg6eVauHwquXhc/FO4ywLL5Go/oYCfvT3rrJEmy4QwUgWd1N1wAa73QDN79zmkjaIVzGlmbFMFGb3ushyl2pOO2tP3LYHnJLKp/P4AubeY7uQdxB8tLdnn9+wFF6PELq/3ZSROhP8w3+t7TkC8QBnn/kr+ZO1hkjEMzxzaV33xDwfon/Sed9wG4sHI8pt+zAAH0F4sOpl/sCKO+9p0ugEVnbpoPCISiQFkEG1NZ249/HQIy4De2/gZg0eiZq0iuf4Cj1VTFNcHQ5BtOFWmXa9e7hZo2hJsGLpu9QyCFXQYwOJnqTJMvCKNgcehedi3KsM3GmG46oZCtlTOw/kD/SRpeAC6tLMZlWRfhqcmUZmNaUzjio7VNjHOl1m+Q8rkWMl+Ci5OlCGIUGJf3iPYIo75pdBpH+OJaF71sO12hiNYPmRhCFHVmmo9ZxYOByTe88A83lEMy3HUiMrErkoYR7HcbekNnkz25HDJK0F774Simer4G3fHW9jEo4SmLVccpzjtTb8++HCOAtUZo1uD4bzycLVCOYBRByzutd9OZvZwmCsOT2VTWYDK0f20tnk1nlp4jIWnMTG2O3tvQ+ThOt5MByU53rvscw92U9OZdmvZk6/jlsHQ7doDkN1VaNPY33xOuvmEWq/5dK5PiLO2lTRw1W32pevP9N0R/+NzZaPV7UwtWqwdRC1arB9GHAqx/fu5stPq9iYH18nNno9XvTS1Yre5ZyXY8iL0PtxSsbzwvHTT4AHWrVpcU93OEstJifU23efLTva//tfrStJ5Q7xmcee8LsL4vjhfhzrSXtGar1TWKJ6fTad/J6aeW0QuPgPU10Vf0MC32QYDycLUIXzjuL7T60hVPVrD0GwiRPyPW6V+3FKzbpPDKL3bNAfAxanvFVi6KDzx4ADqw7VsG1qfiFHQ87jcJ4NSqVU1lWLGwinr7UQDLq76E2eiEXKtWldiJVX6oJvnw/pevqG4//lz6KpRhv/TRclq10qq3Zz0hOx+Y/OurT7dfMd3e3v7yobimDOGENvN2ftiqidJJv3SXZp86im85VaV+Lc6A8fPlIYR9Z8/UVl+exsfKU5pF98h+lbki/WFx4b5yqA5xOzdsdUn78+GO8pjVz59Ek3X76ZcCo0w46X1sTVarSwryc4iR8ljPm4+fPt0yffr1a3YYugrR7MPw0G3+abVWX6ripDf1udWKyuMX8Yf3H/+L6OPPfL1hxgML4OYfgmz1pSvjcXJ9ONIOn/i0sV0ibeWkXhXoBKMb9TBTMtyfY+LoQzS3aqWVEGKJoLU4TIdpliTJOu2NpxsfCQdsHT6J3KrVQIpFAWhwphwhFEUQFt+gEWSN1dKqlaj0UiAukTrQTglbNVOMjIF5BJ54QNRle9K5VUOtTzmN50GjW0QoCFX7BYIoX6w6UU76xeOs3Sps1VzDfgRO02Ev7W27J182YLA/YSEmsuHo1I6wWjkpHp57uPUsOhstEF0Rs6ZVK63SKjYzAK2NanV/6sGw+Nx92NqrVveq2X65Wu33J8sn31u1ukZx3M7/Kv0b8Hq2qIWdT6oAAAAASUVORK5CYII=;" vertex="1" parent="1">
          <mxGeometry x="190.66" y="164" width="146.34" height="20" as="geometry" />
        </mxCell>
        <mxCell id="Cw4v4y6tv-VzNez0efr1-179" value="" style="endArrow=none;html=1;rounded=0;entryX=0;entryY=0;entryDx=0;entryDy=0;exitX=1;exitY=1;exitDx=0;exitDy=0;strokeWidth=1;opacity=70;" edge="1" parent="1" source="Cw4v4y6tv-VzNez0efr1-178" target="Cw4v4y6tv-VzNez0efr1-177">
          <mxGeometry width="50" height="50" relative="1" as="geometry">
            <mxPoint x="320" y="191.5" as="sourcePoint" />
            <mxPoint x="370" y="141.5" as="targetPoint" />
          </mxGeometry>
        </mxCell>
        <mxCell id="Cw4v4y6tv-VzNez0efr1-180" value="" style="rounded=0;whiteSpace=wrap;html=1;strokeColor=none;opacity=66;" vertex="1" parent="1">
          <mxGeometry x="868" y="340" width="64" height="58" as="geometry" />
        </mxCell>
        <mxCell id="Cw4v4y6tv-VzNez0efr1-182" value="Service&#xa;Manager" style="shape=image;verticalLabelPosition=bottom;verticalAlign=top;imageAspect=0;aspect=fixed;image=data:image/svg+xml,PHN2ZyB4bWxucz0iaHR0cDovL3d3dy53My5vcmcvMjAwMC9zdmciIGlkPSJMYXllcl8yMjkiIGRhdGEtbmFtZT0iTGF5ZXIgMjI5IiB2aWV3Qm94PSI0IDQgNDggNDgiIHdpZHRoPSI0OCIgaGVpZ2h0PSI0OCI+PGRlZnM+PHN0eWxlPi5jbHMtMXtmaWxsOiMwYTZlZDE7fS5jbHMtMntmaWxsOiMwNTNiNzA7fTwvc3R5bGU+PC9kZWZzPjxwYXRoIGNsYXNzPSJjbHMtMSIgZD0iTTI4LDdhMywzLDAsMSwxLTMsMywzLDMsMCwwLDEsMy0zbTAtM2E2LDYsMCwxLDAsNiw2LDYuMDA3LDYuMDA3LDAsMCwwLTYtNloiLz48cGF0aCBjbGFzcz0iY2xzLTEiIGQ9Ik0yOCw0M2EzLDMsMCwxLDEtMywzLDMsMywwLDAsMSwzLTNtMC0zYTYsNiwwLDEsMCw2LDYsNi4wMDcsNi4wMDcsMCwwLDAtNi02WiIvPjxwYXRoIGNsYXNzPSJjbHMtMSIgZD0iTTEzLDI1djZIN1YyNWg2bTMtM0g0VjM0SDE2VjIyWiIvPjxwYXRoIGNsYXNzPSJjbHMtMSIgZD0iTTQ5LDI1djZINDNWMjVoNm0zLTNINDBWMzRINTJWMjJaIi8+PHBhdGggY2xhc3M9ImNscy0yIiBkPSJNMzcsMjYuMTI1QTcuMTMzLDcuMTMzLDAsMCwxLDI5Ljg3NSwxOWExLjEyNSwxLjEyNSwwLDAsMSwyLjI1LDBBNC44NzksNC44NzksMCwwLDAsMzcsMjMuODc1YTEuMTI1LDEuMTI1LDAsMCwxLDAsMi4yNVoiLz48cGF0aCBjbGFzcz0iY2xzLTIiIGQ9Ik0xOSwyNi4xMjVhMS4xMjUsMS4xMjUsMCwwLDEsMC0yLjI1QTQuODc5LDQuODc5LDAsMCwwLDIzLjg3NSwxOWExLjEyNSwxLjEyNSwwLDAsMSwyLjI1LDBBNy4xMzMsNy4xMzMsMCwwLDEsMTksMjYuMTI1WiIvPjxwYXRoIGNsYXNzPSJjbHMtMiIgZD0iTTI1LDM4LjEyNUExLjEyNSwxLjEyNSwwLDAsMSwyMy44NzUsMzcsNC44OCw0Ljg4LDAsMCwwLDE5LDMyLjEyNWExLjEyNSwxLjEyNSwwLDAsMSwwLTIuMjVBNy4xMzMsNy4xMzMsMCwwLDEsMjYuMTI1LDM3LDEuMTI1LDEuMTI1LDAsMCwxLDI1LDM4LjEyNVoiLz48cGF0aCBjbGFzcz0iY2xzLTIiIGQ9Ik0zMSwzOC4xMjVBMS4xMjUsMS4xMjUsMCwwLDEsMjkuODc1LDM3LDcuMTMzLDcuMTMzLDAsMCwxLDM3LDI5Ljg3NWExLjEyNSwxLjEyNSwwLDAsMSwwLDIuMjVBNC44OCw0Ljg4LDAsMCwwLDMyLjEyNSwzNywxLjEyNSwxLjEyNSwwLDAsMSwzMSwzOC4xMjVaIi8+PC9zdmc+;labelBackgroundColor=default;" vertex="1" parent="1">
          <mxGeometry x="484" y="477" width="48" height="48" as="geometry" />
        </mxCell>
        <mxCell id="Cw4v4y6tv-VzNez0efr1-185" value="" style="group" vertex="1" connectable="0" parent="1">
          <mxGeometry x="896" y="278" width="100" height="40" as="geometry" />
        </mxCell>
        <mxCell id="Cw4v4y6tv-VzNez0efr1-65" value="&lt;blockquote style=&quot;margin: 0 0 0 40px; border: none; padding: 0px;&quot;&gt;SaaS API&lt;br&gt;Broker&lt;/blockquote&gt;" style="rounded=0;whiteSpace=wrap;html=1;align=left;" vertex="1" parent="Cw4v4y6tv-VzNez0efr1-185">
          <mxGeometry width="100" height="40" as="geometry" />
        </mxCell>
        <mxCell id="Cw4v4y6tv-VzNez0efr1-183" value="" style="shape=image;verticalLabelPosition=bottom;verticalAlign=top;imageAspect=0;aspect=fixed;image=data:image/svg+xml,PHN2ZyBpZD0iYmFja2VuZC1zZXJ2aWNlIiB4bWxucz0iaHR0cDovL3d3dy53My5vcmcvMjAwMC9zdmciIHZpZXdCb3g9IjAgMCA1NiA1NiI+PGRlZnM+PHN0eWxlPi5jbHMtMXtmaWxsOiM1YTdhOTQ7fS5jbHMtMntmaWxsOiMwMDkyZDE7fTwvc3R5bGU+PC9kZWZzPjx0aXRsZT5iYWNrZW5kPC90aXRsZT48cGF0aCBjbGFzcz0iY2xzLTEiIGQ9Ik0xMywyNy45ODZoLS41OWE1LjM4Nyw1LjM4NywwLDAsMS0xLjY3NS0xMC41MTVsMi4zMDgtLjc1OUwxMi43ODEsMTQuM2E4LjEsOC4xLDAsMCwxLDEuNS01LjI4NEE2LjUsNi41LDAsMCwxLDE5LjEwOSw3YTYuMDU0LDYuMDU0LDAsMCwxLDUuODY0LDQuMDMzbDEuMzA3LDMuMjlMMjkuMzEsMTIuNWEzLjkyMiwzLjkyMiwwLDAsMSwyLjA0My0uNTkxLDMuOTg4LDMuOTg4LDAsMCwxLDMuOTE0LDMuMjQ5bC4xNTkuODQ1aDNjLS4wNDctLjQzOS0uMTA5LS45LS4yMS0xLjRBNi45NDEsNi45NDEsMCwwLDAsMjcuNzYyLDkuOTI4LDkuNDUyLDkuNDUyLDAsMCwwLDE5LjA1NSw0QzguODYzLDQuMjQyLDkuOCwxNC42MjEsOS44LDE0LjYyMUE4LjM4Nyw4LjM4NywwLDAsMCwxMi40MSwzMC45ODZIMTNaIi8+PHBhdGggY2xhc3M9ImNscy0yIiBkPSJNNDYuNzUsMjYuNDgyYTUuMjI4LDUuMjI4LDAsMCwwLTQuNjIxLDIuODA5bC0yLjIxNC0uNDQ0Yy4wMi0uMjg1LjA4NS0uNTU3LjA4NS0uODQ3YTEyLDEyLDAsMSwwLTE4LjgsOS44NzNMMTkuMjYyLDQxLjZBNS4yNjEsNS4yNjEsMCwxLDAsMjEuOTE1LDQzbDEuOTU3LTMuNzc0YTExLjQ4MSwxMS40ODEsMCwwLDAsOS41NTItLjU3N2wzLjI4Miw0LjgwNmE1LjIsNS4yLDAsMCwwLTEuMTk0LDMuMyw1LjI1LDUuMjUsMCwxLDAsNS4yNS01LjI1LDUuMTgsNS4xOCwwLDAsMC0xLjU3Ny4yNjhsLTMuMjgtNC44YTExLjkzNSwxMS45MzUsMCwwLDAsMy40MjYtNS4xNzVsMi4yMi40NDVhNS4yMzcsNS4yMzcsMCwxLDAsNS4yLTUuNzUyWk0xOC4yNSw0OWEyLjI1LDIuMjUsMCwxLDEsMi4yNS0yLjI1QTIuMjUyLDIuMjUyLDAsMCwxLDE4LjI1LDQ5Wm0yNC43NjItMi4yNWEyLjI1LDIuMjUsMCwxLDEtMi4yNS0yLjI1QTIuMjUzLDIuMjUzLDAsMCwxLDQzLjAxMiw0Ni43NVpNMjgsMzdhOSw5LDAsMSwxLDktOUE5LjAxLDkuMDEsMCwwLDEsMjgsMzdabTE4Ljc1LTMuMDE4QTIuMjUsMi4yNSwwLDEsMSw0OSwzMS43MzIsMi4yNTIsMi4yNTIsMCwwLDEsNDYuNzUsMzMuOTgyWiIvPjxwYXRoIGNsYXNzPSJjbHMtMSIgZD0iTTMyLjE1NywyMy4yMTJhMi42MzcsMi42MzcsMCwwLDAtLjk1LS42NjJBOC4xNDYsOC4xNDYsMCwwLDAsMjgsMjJhOC4xNDYsOC4xNDYsMCwwLDAtMy4yMDcuNTUsMi42MzcsMi42MzcsMCwwLDAtLjk1LjY2MiwxLjM2OSwxLjM2OSwwLDAsMC0uMzYzLjkxNnY3LjcyYTEuMzI0LDEuMzI0LDAsMCwwLC4zNjMuOTE0LDIuNjA5LDIuNjA5LDAsMCwwLC45NDguNjYyQTcuNyw3LjcsMCwwLDAsMjgsMzRhOC4xNDYsOC4xNDYsMCwwLDAsMy4yMDctLjU1LDIuNjM3LDIuNjM3LDAsMCwwLC45NS0uNjYyLDEuNDI3LDEuNDI3LDAsMCwwLC4zNjMtLjkxNlYyNC4xMjhBMS4zNjksMS4zNjksMCwwLDAsMzIuMTU3LDIzLjIxMlptLTMuMTQsOS43NjFjLS4zMjUuMDMtLjY2MS4wNTItMS4wMTcuMDUyYTEwLjI4NiwxMC4yODYsMCwwLDEtMS4yMzktLjA3N3YtNi43NGExMi4wNzMsMTIuMDczLDAsMCwwLDEuMjM5LjA2Yy4zNTYsMCwuNjkzLS4wMTgsMS4wMTctLjA0NlptMi42MDYtMS4xYzAsLjI1NC0uMzMzLjUzMS0uODkzLjc0YTUuMTcyLDUuMTcyLDAsMCwxLS44MS4yMjZWMjYuMWE0Ljk1LDQuOTUsMCwwLDAsMS43LS42Wk0zMC43MywyNC45YTcuODQ3LDcuODQ3LDAsMCwxLTIuNzMuNDEzLDcuODI3LDcuODI3LDAsMCwxLTIuNzI4LS40MTNjLS41NTQtLjIzNy0uODcyLS41MTUtLjg3Mi0uNzY0di0uMDEyYzAtLjQ3MSwxLjI4My0xLjE1MywzLjYtMS4xNTMsMi4zMzMsMCwzLjYyMy42ODIsMy42MjMsMS4xNjZDMzEuNjIzLDI0LjM5MiwzMS4zLDI0LjY3LDMwLjczLDI0LjlaIi8+PC9zdmc+" vertex="1" parent="Cw4v4y6tv-VzNez0efr1-185">
          <mxGeometry x="1" y="1" width="39" height="39" as="geometry" />
        </mxCell>
        <mxCell id="Cw4v4y6tv-VzNez0efr1-186" value="Credential&#xa;Store" style="shape=image;verticalLabelPosition=bottom;verticalAlign=top;imageAspect=0;aspect=fixed;image=data:image/svg+xml,PHN2ZyB4bWxucz0iaHR0cDovL3d3dy53My5vcmcvMjAwMC9zdmciIGlkPSJjcmVkZW50aWFsLXN0b3JlIiB2aWV3Qm94PSIzLjk4MjY2OTExNTA2NjUyODMgMy45OTk3NTgwMDUxNDIyMTIgNDguMDE3MzMwMTY5Njc3NzM0IDQ4LjAwMDI0MDMyNTkyNzczNCIgd2lkdGg9IjQ4LjAxNzMzMDE2OTY3NzczNCIgaGVpZ2h0PSI0OC4wMDAyNDAzMjU5Mjc3MzQiPjxkZWZzPjxzdHlsZT4uY2xzLTF7ZmlsbDojMGE2ZWQxO30uY2xzLTJ7ZmlsbDojMDUzYjcwO308L3N0eWxlPjwvZGVmcz48dGl0bGU+Y3JlZGVudGlhbC1zdG9yZTwvdGl0bGU+PHBhdGggY2xhc3M9ImNscy0xIiBkPSJNNDkuMDA4LDM0SDE4Ljk5MkEyLjk5MywyLjk5MywwLDAsMCwxNiwzNi45OTJWNDkuMDA4QTIuOTkzLDIuOTkzLDAsMCwwLDE4Ljk5Miw1Mkg0OS4wMDhBMi45OTMsMi45OTMsMCwwLDAsNTIsNDkuMDA4VjM2Ljk5MkEyLjk5MywyLjk5MywwLDAsMCw0OS4wMDgsMzRaTTE5LDQ5LjAwOCwxOC45OTIsMzdINDlsLjAwOCwxMloiLz48cGF0aCBjbGFzcz0iY2xzLTEiIGQ9Ik0yNy45LDQxLjE3NmEuNzUuNzUsMCwwLDAtMS4wMzEtLjI0N2wtMS4xMTIuNjgzVjQwLjQ0OGEuNzUuNzUsMCwwLDAtMS41LDB2MS4xNjRsLTEuMTEyLS42ODNhLjc1Ljc1LDAsMCwwLS43ODUsMS4yNzhsMS4yMTUuNzQ1LTEuMjE1Ljc0NmEuNzUuNzUsMCwwLDAsLjM5MywxLjM4OS43MzEuNzMxLDAsMCwwLC4zOTItLjExMmwxLjExMi0uNjgydjEuMjU5YS43NS43NSwwLDAsMCwxLjUsMFY0NC4yOTNsMS4xMTIuNjgyYS43MzQuNzM0LDAsMCwwLC4zOTMuMTEyLjc1Ljc1LDAsMCwwLC4zOTItMS4zODlsLTEuMjE0LS43NDYsMS4yMTQtLjc0NUEuNzQ5Ljc0OSwwLDAsMCwyNy45LDQxLjE3NloiLz48cGF0aCBjbGFzcz0iY2xzLTEiIGQ9Ik0zNi44OTMsNDEuMTc2YS43NS43NSwwLDAsMC0xLjAzMS0uMjQ3bC0xLjExMi42ODNWNDAuNDQ4YS43NS43NSwwLDAsMC0xLjUsMHYxLjE2NGwtMS4xMTItLjY4M2EuNzUuNzUsMCwwLDAtLjc4NSwxLjI3OGwxLjIxNC43NDUtMS4yMTQuNzQ2YS43NS43NSwwLDAsMCwuMzkzLDEuMzg5LjczMy43MzMsMCwwLDAsLjM5Mi0uMTEybDEuMTEyLS42ODJ2MS4yNTlhLjc1Ljc1LDAsMCwwLDEuNSwwVjQ0LjI5M2wxLjExMi42ODJhLjczMy43MzMsMCwwLDAsLjM5Mi4xMTIuNzUuNzUsMCwwLDAsLjM5My0xLjM4OWwtMS4yMTQtLjc0NiwxLjIxNC0uNzQ1QS43NDkuNzQ5LDAsMCwwLDM2Ljg5Myw0MS4xNzZaIi8+PHBhdGggY2xhc3M9ImNscy0xIiBkPSJNNDUuOTQsNDEuMTc2YS43NS43NSwwLDAsMC0xLjAzMS0uMjQ3bC0xLjExMi42ODNWNDAuNDQ4YS43NS43NSwwLDAsMC0xLjUsMHYxLjE2NGwtMS4xMTItLjY4M2EuNzUuNzUsMCwwLDAtLjc4NSwxLjI3OGwxLjIxNC43NDVMNDAuNCw0My43YS43NS43NSwwLDAsMCwuMzkzLDEuMzg5LjczMy43MzMsMCwwLDAsLjM5Mi0uMTEybDEuMTEyLS42ODJ2MS4yNTlhLjc1Ljc1LDAsMCwwLDEuNSwwVjQ0LjI5M2wxLjExMi42ODJhLjczMy43MzMsMCwwLDAsLjM5Mi4xMTIuNzUuNzUsMCwwLDAsLjM5My0xLjM4OWwtMS4yMTQtLjc0NiwxLjIxNC0uNzQ1QS43NDkuNzQ5LDAsMCwwLDQ1Ljk0LDQxLjE3NloiLz48Y2lyY2xlIGNsYXNzPSJjbHMtMiIgY3g9IjM1LjA0MyIgY3k9IjE3LjUiIHI9IjMiLz48cGF0aCBjbGFzcz0iY2xzLTIiIGQ9Ik00Ny44NTQsMTIuN2ExNC44ODQsMTQuODg0LDAsMCwwLTcuNTgtNy41NThBMTMuMDM4LDEzLjAzOCwwLDAsMCwzNC45LDRhMTMuMjU0LDEzLjI1NCwwLDAsMC01LjQ2NSwxLjE0MywxNC41NTEsMTQuNTUxLDAsMCwwLTcuNDkyLDcuNDcsMTMuMTU0LDEzLjE1NCwwLDAsMC0xLjE0Niw1LjQ0OSw4LjQzOCw4LjQzOCwwLDAsMCwuNCwyLjY4MWMuMjY1Ljc5MS42MjgsMS41NTEuODYzLDIuMDc4TDUuNTQ1LDM5Ljg1OUE1Ljg2Nyw1Ljg2NywwLDAsMCw0LDQzLjQxYTUuMzEsNS4zMSwwLDAsMCwuMzU1LDIuMzgyLDguNTY0LDguNTY0LDAsMCwwLC45MjUsMS40NSw0LjQ2Myw0LjQ2MywwLDAsMCwyLjQxMiwxLjU0M0E0LjUxNiw0LjUxNiwwLDAsMCw5LjUxMSw0OUgxM1Y0Nkg5LjYxOGwtLjUzMi0uMDIxYTIuMjM1LDIuMjM1LDAsMCwxLTIuMjIyLTIuMjIzLDIuNTMzLDIuNTMzLDAsMCwxLC42NzctMS42NjksNC4wNzQsNC4wNzQsMCwwLDEsLjQ4Ni0uNTQ1TDI0LjE4NSwyNC44OTRsMS42NzUtMS42NXMtLjk4OS0xLjM4OC0xLjMtMS45NzFhOC4zNjksOC4zNjksMCwwLDEtLjc2OC0zLjIxMSw5LjgsOS44LDAsMCwxLC44OC00LjIxNSwxMS41NTUsMTEuNTU1LDAsMCwxLDUuOTgtNS45NjVBMTAuMjE0LDEwLjIxNCwwLDAsMSwzNC45LDdhOS45NjUsOS45NjUsMCwwLDEsNC4xNTEuODgxLDExLjg4MSwxMS44ODEsMCwwLDEsNi4wNzEsNi4wNTIsMTAuMTE3LDEwLjExNywwLDAsMSwwLDguMjYzLDExLjg4LDExLjg4LDAsMCwxLTYuMDcxLDYuMDQ5LDkuOTM0LDkuOTM0LDAsMCwxLTQuMTQ5Ljg4SDI2LjI1NnYzSDM0LjlhMTIuOTksMTIuOTksMCwwLDAsNS4zNzctMS4xNDMsMTQuODg0LDE0Ljg4NCwwLDAsMCw3LjU4LTcuNTU4LDEzLjExNSwxMy4xMTUsMCwwLDAsMC0xMC43MjNaIi8+PC9zdmc+" vertex="1" parent="1">
          <mxGeometry x="561.5" y="609.4100000000001" width="48" height="48" as="geometry" />
        </mxCell>
      </root>
    </mxGraphModel>
  </diagram>
</mxfile>
